<svg xmlns="http://www.w3.org/2000/svg" xmlns:xlink="http://www.w3.org/1999/xlink" stroke-linecap="round" viewBox="0 0 100 100" preserveAspectRatio="xMidYMid meet"><g><path d="M8.415 23.22 C8.415 23.22, 8.415 23.22, 8.415 23.22 M8.415 23.22 C8.415 23.22, 8.415 23.22, 8.415 23.22 M4.809 31.706 C7.634 27.7, 9.928 23.901, 18.182 12.993 M4.809 31.706 C8.085 26.952, 11.177 22.652, 18.182 12.993 M2.948 37.75 C8.365 29.99, 14.955 21.829, 22.716 10.087 M2.948 37.75 C10.568 26.542, 18.635 16.212, 22.716 10.087 M1.668 42.981 C11.704 29.544, 21.133 16.25, 26.669 7.996 M1.668 42.981 C10.266 31.177, 17.953 19.628, 26.669 7.996 M0.97 47.398 C7.577 37.032, 15.018 26.688, 30.04 6.718 M0.97 47.398 C9.611 34.947, 17.796 23.626, 30.04 6.718 M0.853 51.002 C10.196 38.689, 18.235 27.049, 33.993 4.626 M0.853 51.002 C10.508 36.809, 20.73 23.353, 33.993 4.626 M0.736 54.606 C10.44 41.813, 18.837 29.506, 23.992 22.061 M0.736 54.606 C9.518 41.861, 18.524 29.101, 23.992 22.061 M23.992 22.061 C29.148 15.466, 33.243 9.252, 37.365 3.348 M23.992 22.061 C26.641 18.179, 29.418 14.615, 37.365 3.348 M1.2 57.396 C7.285 48.94, 13.429 39.466, 23.294 26.479 M1.2 57.396 C5.878 50.434, 11.075 44.102, 23.294 26.479 M26.201 22.41 C31.041 15.061, 36.6 7.718, 40.155 2.884 M26.201 22.41 C30.394 16.38, 34.56 10.828, 40.155 2.884 M1.665 60.186 C6.416 53.203, 12.332 45.733, 22.595 30.896 M1.665 60.186 C9.565 49.287, 17.298 38.823, 22.595 30.896 M28.409 22.76 C32.51 15.69, 37.962 9.486, 42.945 2.419 M28.409 22.76 C32.962 15.601, 37.982 8.986, 42.945 2.419 M2.129 62.976 C8.588 53.299, 16.507 44.087, 23.06 33.686 M2.129 62.976 C9.646 52.186, 17.145 41.439, 23.06 33.686 M30.618 23.109 C34.106 19.188, 37.449 13.659, 45.735 1.955 M30.618 23.109 C34.467 18.279, 38.137 13.309, 45.735 1.955 M3.175 64.952 C7.969 57.886, 13.973 49.018, 20.617 40.544 M3.175 64.952 C9.976 55.607, 15.916 46.688, 20.617 40.544 M32.245 24.272 C37.835 14.965, 45.278 6.806, 48.525 1.491 M32.245 24.272 C35.429 19.114, 39.377 14.587, 48.525 1.491 M3.639 67.742 C8.197 60.996, 12.336 54.697, 18.756 46.588 M3.639 67.742 C7.779 61.509, 12.42 56.128, 18.756 46.588 M33.872 25.435 C38.961 19.016, 44.151 11.802, 51.315 1.026 M33.872 25.435 C38.911 18.77, 44.106 11.299, 51.315 1.026 M4.685 69.719 C8.915 63.313, 13.963 56.173, 18.639 50.192 M4.685 69.719 C7.707 65.293, 11.2 60.004, 18.639 50.192 M36.081 25.784 C42.304 17.02, 48.753 7.259, 53.523 1.375 M36.081 25.784 C42.36 17.522, 47.877 8.463, 53.523 1.375 M5.149 72.509 C8.434 67.12, 11.92 61.407, 19.103 52.982 M5.149 72.509 C9.267 66.568, 14.358 60.262, 19.103 52.982 M37.708 26.947 C43.002 18.097, 48.591 10.674, 55.732 1.725 M37.708 26.947 C42.622 19.476, 47.873 12.52, 55.732 1.725 M6.195 74.485 C10.849 68.051, 15.315 61.676, 18.986 56.586 M6.195 74.485 C9.264 70.184, 12.953 65.765, 18.986 56.586 M40.498 26.482 C45.938 17.918, 52.278 10.272, 57.941 2.074 M40.498 26.482 C45.388 19.909, 49.648 13.513, 57.941 2.074 M7.241 76.462 C10.817 70.756, 15.172 64.413, 20.032 58.562 M7.241 76.462 C10.986 71.703, 14.219 66.127, 20.032 58.562 M43.288 26.018 C47.89 19.958, 51.36 14.794, 60.149 2.423 M43.288 26.018 C48.099 19.849, 52.668 13.407, 60.149 2.423 M8.287 78.438 C12.634 72.555, 16.634 67.447, 20.496 61.352 M8.287 78.438 C12.057 73.061, 16.298 67.165, 20.496 61.352 M46.078 25.553 C49.091 20.268, 53.83 15.204, 62.358 2.772 M46.078 25.553 C51.9 17.724, 57.425 9.795, 62.358 2.772 M9.914 79.601 C11.336 77.996, 12.197 75.939, 14.565 73.092 M9.914 79.601 C11.805 76.987, 13.517 74.621, 14.565 73.092 M16.309 70.651 C18.201 68.534, 19.142 66.495, 21.542 63.329 M16.309 70.651 C18.023 68.408, 19.604 65.695, 21.542 63.329 M48.287 25.903 C53.84 19.958, 57.767 12.848, 64.567 3.121 M48.287 25.903 C53.75 17.836, 60.348 9.218, 64.567 3.121 M10.96 81.577 C12.38 79.714, 13.085 78.056, 16.192 74.255 M10.96 81.577 C12.91 78.914, 14.685 76.548, 16.192 74.255 M17.937 71.814 C20.075 69.053, 21.773 66.992, 23.169 64.491 M17.937 71.814 C19.29 69.917, 20.515 67.825, 23.169 64.491 M51.077 25.438 C57.54 17.886, 62.618 9.026, 66.194 4.284 M51.077 25.438 C55.925 18.674, 61.298 11.488, 66.194 4.284 M12.587 82.74 C13.849 81.281, 14.526 79.661, 17.82 75.418 M12.587 82.74 C14.186 80.361, 16.278 77.866, 17.82 75.418 M20.145 72.163 C21.388 70.296, 23.189 68.617, 24.797 65.654 M20.145 72.163 C21.424 70.305, 22.895 68.275, 24.797 65.654 M53.286 25.787 C58.058 19.444, 63.147 12.382, 68.402 4.634 M53.286 25.787 C59.414 17.717, 65.222 9.735, 68.402 4.634 M13.633 84.717 C15.243 82.079, 17.199 79.927, 18.866 77.394 M13.633 84.717 C14.92 83.019, 16.131 81.35, 18.866 77.394 M21.191 74.14 C23.112 71.945, 24.284 69.547, 25.842 67.631 M21.191 74.14 C22.384 72.76, 23.278 71.336, 25.842 67.631 M55.494 26.137 C61.143 18.626, 64.855 11.849, 70.03 5.796 M55.494 26.137 C58.501 21.321, 61.91 16.678, 70.03 5.796 M15.26 85.879 C17.056 83.535, 19.157 80.696, 19.911 79.37 M15.26 85.879 C16.234 84.376, 17.369 82.754, 19.911 79.37 M22.818 75.302 C24.16 73.224, 25.72 71.436, 27.47 68.794 M22.818 75.302 C24.526 72.875, 26.072 70.545, 27.47 68.794 M57.703 26.486 C63.29 18.803, 67.874 12.276, 72.238 6.146 M57.703 26.486 C60.528 21.961, 64.446 17.001, 72.238 6.146 M16.887 87.042 C18.405 85.244, 19.26 83.691, 21.539 80.533 M16.887 87.042 C18.78 84.598, 20.464 81.936, 21.539 80.533 M24.446 76.465 C25.869 74.867, 26.767 73.412, 29.097 69.956 M24.446 76.465 C26.13 74.109, 27.664 72.155, 29.097 69.956 M59.912 26.835 C64.672 20.814, 68.308 14.124, 73.865 7.308 M59.912 26.835 C64.036 21.674, 67.457 16.219, 73.865 7.308 M17.933 89.019 C19.069 87.508, 20.178 85.762, 22.584 82.51 M17.933 89.019 C19.721 86.583, 21.354 84.072, 22.584 82.51 M25.491 78.442 C26.916 75.979, 29.428 73.181, 31.306 70.306 M25.491 78.442 C26.952 76.4, 28.793 73.846, 31.306 70.306 M62.12 27.184 C64.987 23.162, 67.89 17.682, 75.493 8.471 M62.12 27.184 C65.402 22.89, 68.765 18.353, 75.493 8.471 M19.56 90.181 C20.842 88.459, 21.97 86.347, 23.63 84.486 M19.56 90.181 C20.334 88.982, 21.215 87.76, 23.63 84.486 M27.119 79.605 C28.318 77.256, 30.167 75.308, 32.933 71.468 M27.119 79.605 C28.682 77.008, 30.629 74.485, 32.933 71.468 M64.91 26.72 C69.387 20.297, 73.496 15.287, 77.12 9.634 M64.91 26.72 C69.978 19.777, 74.124 13.265, 77.12 9.634 M21.188 91.344 C22.269 89.765, 23.042 88.862, 25.257 85.649 M21.188 91.344 C22.356 89.583, 23.64 88.022, 25.257 85.649 M28.746 80.767 C30.432 78.443, 31.302 76.919, 35.141 71.818 M28.746 80.767 C31.089 77.834, 33.351 74.581, 35.141 71.818 M68.863 24.628 C71.869 20.06, 74.91 15.986, 78.747 10.797 M68.863 24.628 C71.76 20.242, 75.46 15.735, 78.747 10.797 M22.815 92.507 C24.439 90.223, 26.037 88.003, 26.885 86.812 M22.815 92.507 C23.811 91.078, 25.047 89.269, 26.885 86.812 M30.954 81.117 C32.507 78.604, 34.982 75.49, 37.35 72.167 M30.954 81.117 C32.801 78.457, 34.77 76.144, 37.35 72.167 M72.816 22.537 C76.047 18.042, 78.582 14.39, 80.374 11.96 M72.816 22.537 C75.316 18.732, 78.099 15.033, 80.374 11.96 M24.442 93.67 C26.539 90.922, 28.208 88.444, 29.093 87.161 M24.442 93.67 C25.937 91.729, 27.363 89.688, 29.093 87.161 M33.163 81.466 C34.738 80.003, 35.912 77.901, 39.559 72.516 M33.163 81.466 C34.781 78.797, 36.722 76.428, 39.559 72.516 M75.606 22.072 C77.454 19.994, 79.329 17.222, 82.002 13.122 M75.606 22.072 C77.081 19.743, 78.67 17.612, 82.002 13.122 M26.069 94.833 C27.218 92.961, 28.861 90.72, 31.883 86.697 M26.069 94.833 C27.964 92.281, 29.507 89.671, 31.883 86.697 M35.953 81.001 C36.948 79.351, 38.314 77.744, 41.186 73.679 M35.953 81.001 C37.123 79.448, 38.165 78.143, 41.186 73.679 M77.233 23.235 C79.358 20.087, 82.428 15.704, 83.629 14.285 M77.233 23.235 C78.603 21.487, 79.829 19.437, 83.629 14.285 M28.278 95.182 C30.423 92.524, 32.302 89.666, 34.092 87.046 M28.278 95.182 C29.645 93.308, 30.695 91.828, 34.092 87.046 M77.698 26.025 C79.526 23.816, 81.217 20.479, 85.256 15.448 M77.698 26.025 C79.722 22.755, 82.374 19.567, 85.256 15.448 M29.905 96.345 C31.707 93.608, 33.826 91.565, 36.882 86.581 M29.905 96.345 C32.631 92.647, 34.999 89.243, 36.882 86.581 M78.162 28.815 C80.835 24.999, 83.25 21.36, 86.883 16.611 M78.162 28.815 C80.45 25.72, 82.021 23.27, 86.883 16.611 M31.532 97.508 C33.611 94.365, 35.712 91.183, 37.928 88.558 M31.532 97.508 C33.044 95.189, 34.585 93.123, 37.928 88.558 M77.464 33.232 C79.626 29.522, 83.07 25.227, 87.929 18.587 M77.464 33.232 C80.036 29.609, 82.898 26.095, 87.929 18.587 M33.741 97.857 C34.522 96.598, 35.441 95.354, 37.811 92.162 M33.741 97.857 C35.175 95.998, 36.426 93.834, 37.811 92.162 M77.928 36.022 C80.671 32.493, 83.38 29.689, 89.556 19.75 M77.928 36.022 C80.463 31.935, 83.29 28.078, 89.556 19.75 M35.95 98.206 C36.281 97.75, 36.628 97.063, 37.694 95.765 M35.95 98.206 C36.424 97.675, 36.747 97.058, 37.694 95.765 M78.974 37.999 C81.477 33.543, 86.059 28.496, 90.602 21.727 M78.974 37.999 C82.233 33.327, 85.957 28.293, 90.602 21.727 M80.02 39.975 C84.601 34.01, 88.57 27.575, 91.648 23.703 M80.02 39.975 C84.313 33.996, 88.697 27.432, 91.648 23.703 M80.484 42.765 C83.716 37.678, 86.552 34.167, 92.694 25.679 M80.484 42.765 C83.613 38.847, 86.496 34.961, 92.694 25.679 M60.018 74.845 C60.321 74.378, 60.711 73.944, 61.181 73.218 M60.018 74.845 C60.355 74.357, 60.746 73.803, 61.181 73.218 M81.53 44.742 C84.389 40.485, 88.341 36.272, 93.74 27.656 M81.53 44.742 C84.047 41.106, 87.265 36.706, 93.74 27.656 M61.064 76.822 C62.175 75.525, 62.764 74.052, 63.971 72.754 M61.064 76.822 C61.829 75.68, 62.732 74.568, 63.971 72.754 M81.413 48.345 C85.739 42.957, 88.61 38.105, 94.785 29.632 M81.413 48.345 C86.013 41.607, 90.266 35.394, 94.785 29.632 M62.109 78.798 C63.895 76.517, 65.153 74.928, 67.342 71.476 M62.109 78.798 C63.322 77.244, 64.182 75.694, 67.342 71.476 M81.296 51.949 C87.396 44.606, 92.57 35.7, 95.831 31.609 M81.296 51.949 C84.591 47.32, 88.057 42.09, 95.831 31.609 M62.574 81.588 C64.799 78.276, 66.639 75.632, 71.295 69.384 M62.574 81.588 C65.365 77.971, 67.934 74.687, 71.295 69.384 M81.76 54.739 C86.202 46.606, 92.029 40.5, 96.877 33.585 M81.76 54.739 C85.383 49.681, 89.28 43.828, 96.877 33.585 M63.038 84.378 C72.395 70.164, 83.017 55.709, 97.923 35.562 M63.038 84.378 C72.742 70.931, 81.969 57.754, 97.923 35.562 M62.921 87.982 C77.021 69.33, 90.954 48.793, 98.969 37.538 M62.921 87.982 C75.362 70.79, 87.537 54.006, 98.969 37.538 M62.804 91.586 C75.708 74.961, 86.182 58.122, 99.433 40.328 M62.804 91.586 C74.438 74.881, 85.567 59.029, 99.433 40.328 M63.269 94.376 C73.429 81.618, 81.499 68.375, 99.897 43.118 M63.269 94.376 C75.007 78.468, 85.901 62.731, 99.897 43.118 M63.733 97.166 C77.516 78.863, 90.428 61.188, 100.362 45.908 M63.733 97.166 C75.224 81.074, 87.488 64.177, 100.362 45.908 M64.779 99.142 C76.845 81.397, 89.346 63.716, 100.245 49.512 M64.779 99.142 C78.802 79.652, 92.681 61.045, 100.245 49.512 M68.15 97.864 C79.056 83.509, 90.228 68.424, 100.128 53.115 M68.15 97.864 C76.359 87.267, 83.997 76.636, 100.128 53.115 M71.522 96.586 C77.193 88.967, 83.602 80.426, 100.011 56.719 M71.522 96.586 C79.117 85.599, 86.45 75.042, 100.011 56.719 M76.056 93.681 C83.474 83.731, 90.471 72.807, 98.15 62.764 M76.056 93.681 C84.005 82.899, 91.678 71.631, 98.15 62.764 M81.172 89.962 C86.248 82.416, 91.871 73.341, 96.288 68.808 M81.172 89.962 C85.335 85.042, 89.044 79.644, 96.288 68.808" stroke="#161614" stroke-width="0.976" fill="none"></path><path d="M50 1 C22.034 1.361, -0.165 22.953, 0 51 M50 1 C22.002 1.294, -0.299 23.972, 0 51 M0 51 C0.445 72.722, 14.08 92.547, 34.193 98.446 M0 51 C-0.169 72.661, 14.533 92.266, 34.193 98.446 M34.193 98.446 C35.925 98.204, 38.021 97.77, 37.61 96.04 M34.193 98.446 C36.029 98.459, 37.297 97.402, 37.61 96.04 M37.61 96.04 C37.557 94.294, 37.261 91.701, 37.542 86.731 M37.61 96.04 C37.397 94.383, 37.765 90.133, 37.542 86.731 M37.542 86.731 C23.557 90.121, 20.799 80.227, 20.696 80.831 M37.542 86.731 C24.397 90.641, 20.593 80.692, 20.696 80.831 M20.696 80.831 C17.93 74.391, 15.861 73.875, 15.145 73.516 M20.696 80.831 C18.208 74.726, 15.516 73.901, 15.145 73.516 M15.145 73.516 C11.041 70.667, 15.911 70.492, 15.486 70.476 M15.145 73.516 C10.263 69.978, 14.797 69.932, 15.486 70.476 M15.486 70.476 C19.947 71.627, 22.67 75.332, 23.151 75.629 M15.486 70.476 C19.775 71.604, 22.845 75.275, 23.151 75.629 M23.151 75.629 C27.078 83.728, 34.536 80.418, 37.701 79.785 M23.151 75.629 C26.738 83.338, 35.436 81.139, 37.701 79.785 M37.701 79.785 C38.205 77.063, 38.667 75.058, 40.876 73.099 M37.701 79.785 C37.659 76.503, 40.276 74.446, 40.876 73.099 M40.876 73.099 C30.312 71.086, 17.502 66.849, 18.096 48.389 M40.876 73.099 C30.229 71.328, 18.963 66.84, 18.096 48.389 M18.096 48.389 C18.164 42.892, 19.782 38.938, 23.247 34.969 M18.096 48.389 C18.048 42.759, 20.966 37.781, 23.247 34.969 M23.247 34.969 C23.498 33.44, 20.507 28.768, 23.732 21.736 M23.247 34.969 C22.141 34.19, 20.145 28.819, 23.732 21.736 M23.732 21.736 C23.521 22.378, 27.298 19.658, 37.485 26.861 M23.732 21.736 C23.767 21.098, 28.706 20.77, 37.485 26.861 M37.485 26.861 C41.936 25.935, 45.605 25.767, 50 25.179 M37.485 26.861 C40.579 25.891, 45.62 25.555, 50 25.179 M50 25.179 C53.782 24.435, 58.168 26.343, 62.526 26.861 M50 25.179 C53.448 24.539, 57.915 26.62, 62.526 26.861 M62.526 26.861 C72.004 20.885, 76.671 20.999, 76.262 21.736 M62.526 26.861 C72.888 19.648, 76.493 20.923, 76.262 21.736 M76.262 21.736 C78.592 29.058, 77.729 33.636, 76.752 34.968 M76.262 21.736 C79.544 29.178, 76.676 33.898, 76.752 34.968 M76.752 34.968 C79.453 39.02, 81.367 42.645, 81.898 48.388 M76.752 34.968 C80.267 38.934, 81.091 42.704, 81.898 48.388 M81.898 48.388 C82.23 66.917, 70.337 72.587, 59.068 73.059 M81.898 48.388 C81.778 67.709, 70.014 71.417, 59.068 73.059 M59.068 73.059 C60.319 74.852, 62.605 78.266, 62.459 82.319 M59.068 73.059 C61.558 75.486, 61.872 77.346, 62.459 82.319 M62.459 82.319 C62.873 89.599, 62.589 94.585, 62.401 96.04 M62.459 82.319 C62.736 89.663, 61.992 94.729, 62.401 96.04 M62.401 96.04 C62.538 96.824, 64.052 99.572, 65.836 98.439 M62.401 96.04 C61.984 96.808, 63.174 99.119, 65.836 98.439 M65.836 98.439 C85.859 91.14, 100.525 73.181, 100 51 M65.836 98.439 C85.043 91.099, 99.556 73.067, 100 51 M100 51 C100.243 23.062, 77.213 1.091, 50 1 M100 51 C100.086 24.01, 77.164 1.677, 50 1" stroke="#161614" stroke-width="1" fill="none"></path></g><g><path d="M17.373 71.694 C17.373 71.694, 17.373 71.694, 17.373 71.694 M17.373 71.694 C17.373 71.694, 17.373 71.694, 17.373 71.694 M20.618 74.033 C20.618 74.033, 20.618 74.033, 20.618 74.033 M20.618 74.033 C20.618 74.033, 20.618 74.033, 20.618 74.033 M21.655 76.013 C21.655 76.013, 21.655 76.013, 21.655 76.013 M21.655 76.013 C21.655 76.013, 21.655 76.013, 21.655 76.013 M24.315 79.164 C24.315 79.164, 24.315 79.164, 24.315 79.164 M24.315 79.164 C24.315 79.164, 24.315 79.164, 24.315 79.164 M27.56 81.503 C27.56 81.503, 27.56 81.503, 27.56 81.503 M27.56 81.503 C27.56 81.503, 27.56 81.503, 27.56 81.503 M31.974 82.219 C32.118 82.023, 32.215 81.864, 32.559 81.408 M31.974 82.219 C32.168 81.967, 32.339 81.705, 32.559 81.408 M36.389 82.936 C36.642 82.604, 36.855 82.333, 36.974 82.125 M36.389 82.936 C36.546 82.697, 36.726 82.489, 36.974 82.125" stroke="#161614" stroke-width="0.905" fill="none"></path><path d="M18.727 72.227 C18.261 72.836, 18.06 72.116, 17.87 72.379 M17.87 72.379 C17.17 72.472, 17.043 72.386, 17.42 71.628 M17.42 71.628 C17.974 71.002, 17.673 72.014, 18.282 71.472 M18.282 71.472 C18.498 71.26, 19.031 72.353, 18.727 72.227 M21.187 74.421 C20.18 73.938, 20.892 74.948, 20.165 74.19 M20.165 74.19 C19.262 73.451, 19.505 73.412, 20.019 73.15 M20.019 73.15 C20.212 72.376, 20.415 73.825, 21.045 73.382 M21.045 73.382 C21.187 73.331, 21.61 73.523, 21.185 74.422 M21.185 74.422 C21.186 74.422, 21.186 74.421, 21.187 74.421 M22.874 77.229 C22.446 76.95, 21.405 77.958, 21.756 76.797 M21.756 76.797 C21.809 76.167, 21.166 76.143, 21.763 75.606 M21.763 75.606 C22.407 75.825, 22.822 76.01, 22.881 76.026 M22.881 76.026 C23.202 76.178, 22.809 76.412, 22.873 77.229 M25.726 80.481 C24.979 80.222, 25.666 80.22, 24.441 80.289 M24.441 80.289 C23.707 79.248, 24.555 79.048, 24.157 79.012 M24.157 79.012 C24.126 78.176, 25.476 78.482, 25.452 79.203 M25.452 79.203 C25.241 78.847, 26.075 80.693, 25.726 80.481 M29.414 81.579 C29.36 82.025, 29.241 81.37, 28.164 81.982 M28.164 81.982 C28.309 81.384, 27.186 82.073, 27.343 80.956 M27.343 80.956 C27.546 81.104, 27.276 79.782, 28.596 80.555 M28.596 80.555 C28.463 81.124, 29.091 81.934, 29.414 81.579 M33.611 82.044 C33.01 82.525, 33.107 82.532, 32.551 82.806 M32.551 82.806 C32.421 82.777, 31.32 83.283, 31.463 82.08 M31.463 82.08 C30.865 82.434, 31.663 80.815, 32.53 81.315 M32.53 81.315 C33.269 80.792, 34.029 80.876, 33.611 82.045 M37.734 81.887 C37.976 82.079, 38.034 82.071, 36.802 82.813 M36.802 82.813 C35.488 82.95, 35.129 83.345, 35.61 82.272 M35.61 82.272 C35.866 82.322, 36.142 81.3, 36.538 81.339 M36.538 81.339 C37.699 80.458, 37.778 81.365, 37.734 81.887" stroke="#161614" stroke-width="1" fill="none"></path></g></svg>