<?xml version="1.0" encoding="utf-8" ?><svg xmlns="http://www.w3.org/2000/svg" xmlns:xlink="http://www.w3.org/1999/xlink" width="3337" height="1518" viewBox="0 0 3337 1518"><clipPath id="cl_3"><rect x="0.00012207031" y="0.00048828125" width="3337" height="1518"/></clipPath><g clip-path="url(#cl_3)"><path fill="#8F707F" transform="matrix(1.48245 0 0 1.48242 0.00012207 0.000488281)" d="M-249.701 -350.747L2461.7 -350.747L2461.7 1456.97L-249.701 1456.97L-249.701 -350.747Z"/><path fill="#FAF8F7" transform="matrix(1.48245 0 0 1.48242 0.00012207 0.000488281)" d="M387.009 360.909L545.113 360.962C561.933 360.989 584.115 360.684 600.863 361.591C604.458 361.79 606.695 363.901 608.198 365.867C607.489 368.608 608.039 368.548 604.669 370.805C602.478 372.275 596.349 373.479 593.257 373.42C572.975 373.023 552.374 373.102 532.112 373.069C486.35 372.917 440.589 372.97 394.833 373.221L394.879 448.78C443.514 481.208 497.961 512.775 546.926 545.216C562.714 555.668 596.349 574.374 608.026 585.249C609.383 590.657 609.323 596.793 609.33 602.287C609.343 641.599 609.641 680.931 609.389 720.243C609.369 723.797 608.244 727.815 606.602 731.178C600.367 733.402 536.639 731.753 523.969 731.674L461.427 731.442C433.678 715.907 405.794 692.184 379.316 675.126C375.631 672.749 372.482 667.136 376.145 664.078C387.024 663.906 405.25 678.409 413.15 683.757C428.719 694.434 444.554 704.939 460.653 715.258C500.397 674.576 550.236 628.414 592.112 588.453C545.033 556.859 491.335 525.861 443.7 494.38C427.389 483.597 394.77 465.348 381.946 454.274C379.948 427.691 381.891 399.559 382.049 372.884C382.075 368.469 383.43 364.669 387.009 360.909Z"/><path fill="#8F707F" transform="matrix(1.48245 0 0 1.48242 0.00012207 0.000488281)" d="M594.588 604.041L595.601 604.69C597.044 608.377 596.435 632.425 596.435 638.164L596.415 719.806C558.994 720.209 517.456 719.256 479.684 718.978L477.546 718.449C478.042 714.709 582.646 615.195 594.588 604.041Z"/><path fill="#FAF8F7" transform="matrix(1.48245 0 0 1.48242 0.00012207 0.000488281)" d="M1447.24 361.969C1472.13 361.472 1497.35 361.975 1522.28 361.671C1531.27 361.558 1578.33 358.553 1572.67 370.335C1561.86 375.584 1454.65 374.161 1432.46 374.373L1337.64 465.52L1337.5 660.04C1375.84 660.292 1414.19 660.299 1452.53 660.054C1467.25 660.021 1484.96 659.676 1499.72 660.444C1503.64 660.649 1504.42 661.993 1506.46 663.807C1507.4 666.991 1507.63 666.805 1505.64 669.718C1499.15 673.994 1460.6 672.875 1449.98 672.908L1357.81 673.074C1364.41 677.681 1373.28 682.658 1380.57 686.961C1401.9 698.71 1422 712.505 1443.65 724.598C1475.17 725.108 1507.1 724.466 1538.67 724.922C1545.82 725.022 1566.21 724.929 1559.95 733.468C1549.58 738.975 1523.45 737.473 1510.02 737.433C1487.22 737.512 1464.41 737.221 1441.63 736.552C1439.9 735.811 1438.21 735.037 1436.55 734.222C1400.63 716.86 1360.66 688.232 1326.53 668.626C1321.64 665.812 1322.83 600.547 1323.16 592.994C1324.93 553.139 1319.66 496.71 1326.77 458.921C1327.69 454.062 1417.44 369.951 1425.86 362.452L1447.24 361.969Z"/><path fill="#FAF8F7" transform="matrix(1.48245 0 0 1.48242 0.00012207 0.000488281)" d="M696.054 487.86C732.316 454.724 766.208 419.861 802.16 386.506C808.177 380.926 823.932 361.644 834.345 362.544C836.655 364.861 837.634 368.581 835.324 371.063C821.628 385.791 806.363 400.016 791.476 414.234L705.242 497.432C713.251 506.579 725.882 518.501 734.825 527.49L798.459 591.452C811.295 604.366 826.427 618.922 837.773 632.22C837.84 645.114 839.819 719.925 835.198 726.187C833.669 728.258 832.054 728.874 828.916 729.549L826.321 728.272C821.535 720.898 825.123 652.66 825.203 637.992C811.308 621.933 790.721 602.4 774.893 586.487L695.802 506.983C684.986 516.151 672.627 529.039 662.651 538.954C662.373 549.678 662.379 560.401 662.664 571.124L662.108 621.443C662.035 629.36 661.4 641.262 662.247 648.913C660.665 660.961 666.391 728.186 654.343 731.184C651.239 729.874 649.398 728.729 649.365 726.048C649.087 705.316 649.226 684.571 649.246 663.84L649.418 533.798C659.732 522.525 675.076 508.764 686.574 497.233C676.069 486.854 656.534 471.272 650.967 459.662C648.26 454.023 647.935 374.121 650.074 366.245C653.423 363.504 651.411 364.312 655.866 363.292L658.388 364.729C663.081 372.685 662.545 441.81 662.658 454.38C672.196 465.05 685.151 477.845 696.054 487.86Z"/><path fill="#FAF8F7" transform="matrix(1.48245 0 0 1.48242 0.00012207 0.000488281)" d="M1191.18 372.513C1165.91 373.175 1118.37 371.95 1090.74 371.765C1088.56 371.752 1085.43 369.587 1084.73 367.774C1084.18 366.364 1084.43 364.874 1085.44 363.584C1086.85 361.81 1089.36 360.267 1092.5 360.214C1181.88 358.599 1271.11 362.061 1360.49 362.141C1367.61 362.147 1378.7 363.2 1379.07 368.939C1378.43 369.759 1375.59 373.029 1373.91 373.221C1352.44 375.697 1214.81 370.051 1205.6 374.016L1209.37 374.519L1208.24 375.657C1210.61 377.848 1209.57 377.861 1209.39 380.536C1208.23 397.375 1208.7 414.598 1209.26 431.444C1209.59 447.814 1209.76 464.19 1209.8 480.572C1209.86 488.602 1210.63 505.904 1209.21 512.861C1207.67 511.584 1208.23 512.212 1207.38 511.041L1207.18 642.314C1207.19 655.447 1210.76 703.999 1204.61 712.306L1203.42 712.386C1198.59 713.762 1198.67 714.054 1194.39 712.657C1189.65 707.984 1191.18 674.887 1191.15 667.527L1190.94 591.127L1191.18 372.513Z"/><path fill="#8F707F" transform="matrix(1.48245 0 0 1.48242 0.00012207 0.000488281)" d="M1205.6 374.016L1209.37 374.519L1208.24 375.657C1210.61 377.848 1209.57 377.861 1209.39 380.536C1208.23 397.375 1208.7 414.598 1209.26 431.444C1209.59 447.814 1209.76 464.19 1209.8 480.572C1209.86 488.602 1210.63 505.904 1209.21 512.861C1207.67 511.584 1208.23 512.212 1207.38 511.041L1207.18 642.314C1207.19 655.447 1210.76 703.999 1204.61 712.306L1203.42 712.386C1206.15 689.913 1204.24 647.901 1204.24 623.542L1204.47 455.241L1204.5 404.299C1204.54 395.654 1204.1 382.177 1205.6 374.016Z"/><path fill="#FAF8F7" transform="matrix(1.48245 0 0 1.48242 0.00012207 0.000488281)" d="M1774.78 360.102C1778.66 360.949 1778.38 360.949 1781.18 362.981C1784.55 369.945 1783.57 516.561 1780.66 526.643C1772.28 528.483 1639.44 525.928 1619.61 525.749L1619.57 661.49C1619.54 681.738 1619.5 701.973 1619.82 722.215C1619.88 726.114 1618.59 732.283 1612.38 733.653L1609.78 732.356C1604.22 724.903 1606.44 695.407 1606.25 685.293L1605.1 587.612L1606.82 441.909L1607.72 394.913C1607.81 389.167 1604.58 362.855 1614.28 361.79C1619.49 364.021 1620.2 366.397 1620.23 370.487C1620.34 385.599 1619.94 400.718 1619.9 415.843L1619.7 513.536C1669.62 513.953 1719.53 514.648 1769.43 515.628C1771.6 465.911 1767.99 415.618 1770.86 365.861C1770.99 363.551 1772.85 361.889 1774.78 360.102Z"/><path fill="#FAF8F7" transform="matrix(1.48245 0 0 1.48242 0.00012207 0.000488281)" d="M982.307 359.327C1001.52 359.036 1021.84 358.447 1040.89 359.586C1047.19 359.963 1048.6 364.947 1046 368.575C1039.41 372.354 995.043 371.547 984.398 371.672C952.876 371.997 921.353 372.453 889.837 373.029C890.055 419.477 889.897 465.924 889.38 512.371L992.852 512.848C1004.13 512.98 1020.35 511.57 1028.29 515.813C1030.22 519.116 1029.89 517.415 1028.8 521.148C1025.65 523.591 1021.92 525.021 1017.07 524.776C998.862 523.836 886.6 526.636 879.881 522.903C873.738 510.134 876.432 383.408 877.174 360.956L982.307 359.327Z"/><path fill="#FAF8F7" transform="matrix(1.48245 0 0 1.48242 0.00012207 0.000488281)" d="M1858.54 729.867C1856.08 731.899 1856.26 731.979 1852.91 733.23L1849.88 732.64C1845.84 728.331 1847.18 697.102 1847.16 689.953L1846.94 609.78C1846.73 593.921 1845.1 577.809 1845.02 562.128C1844.69 500.642 1844.91 439.063 1845.62 377.577C1845.67 372.784 1846.11 365.947 1851.35 362.63L1853.68 363.273C1855.51 364.841 1857.56 366.635 1857.65 368.7C1858.28 381.919 1858.01 396.064 1858 409.257C1857.82 440.625 1857.89 471.994 1858.2 503.356C1860.92 497.505 1859.93 482.995 1859.92 476.316L1859.72 412.374C1859.69 403.908 1858.94 384.236 1860.78 376.855L1861.12 575.718C1861.45 607.973 1865.88 640.825 1864.05 673.272C1863.99 674.365 1862.39 675.165 1862.07 676.185C1861.16 679.084 1865.31 693.084 1864.82 694.897C1862.76 702.695 1865.48 724.148 1860.42 729.543L1858.54 729.867Z"/><path fill="#8F707F" transform="matrix(1.48245 0 0 1.48242 0.00012207 0.000488281)" d="M1858.2 503.356C1860.92 497.505 1859.93 482.995 1859.92 476.316L1859.72 412.374C1859.69 403.908 1858.94 384.236 1860.78 376.855L1861.12 575.718C1861.45 607.973 1865.88 640.825 1864.05 673.272C1863.99 674.365 1862.39 675.165 1862.07 676.185C1861.16 679.084 1865.31 693.084 1864.82 694.897C1862.76 702.695 1865.48 724.148 1860.42 729.543L1858.54 729.867C1861.35 655.387 1855.63 577.664 1858.2 503.356Z"/><path fill="#FAF8F7" transform="matrix(1.48245 0 0 1.48242 0.00012207 0.000488281)" d="M881.304 534.738C884.978 535.777 888.473 537.491 888.698 540.371C889.797 554.192 889.883 568.251 890.029 582.092L890.684 667.686L1011.25 668.281C1031.09 668.401 1061.39 667.984 1080.53 669.162C1087.78 672.531 1086 675.88 1082.08 680.229L962.21 680.123C953.538 680.11 878.842 681.738 878.524 676.132C876.009 632.087 877.074 587.434 877.319 543.29C877.339 540.278 879.325 537.372 881.304 534.738Z"/><path fill="#FAF8F7" transform="matrix(1.48245 0 0 1.48242 0.00012207 0.000488281)" d="M1775.98 538.511C1779.48 539.742 1782.56 541.549 1782.88 544.362C1783.87 552.947 1783.43 561.718 1783.34 570.336L1782.93 620.49L1783.06 689.291C1783.09 699.041 1785.47 728.609 1778.48 735.414L1774.77 734.699C1768.46 730.198 1770.45 713.392 1770.43 706.468L1770.41 658.71L1770.45 585.064C1770.47 572.163 1770.32 559.03 1770.91 546.13C1771.04 543.191 1773.55 540.9 1775.98 538.511Z"/><path fill="#8F707F" transform="matrix(1.48245 0 0 1.48242 0.00012207 0.000488281)" d="M662.664 571.124C668.185 576.869 665.325 604.981 666.265 613.414C667.51 624.528 666.219 637.959 666.106 649.185C666 653.646 664.372 657.836 664.015 662.298C663.73 665.938 666.782 671.929 666.292 674.894C665.014 682.632 666.834 720.322 663.161 724.816C662.982 708.752 662.936 692.68 663.028 676.615C663.048 669.844 663.584 655.063 662.247 648.913C661.4 641.262 662.035 629.36 662.108 621.443L662.664 571.124Z"/></g></svg>