<?xml version="1.0" encoding="utf-8" ?><svg xmlns="http://www.w3.org/2000/svg" xmlns:xlink="http://www.w3.org/1999/xlink" width="3336" height="1316" viewBox="0 0 3336 1316"><clipPath id="cl_5"><rect x="-0.00012207031" width="3336" height="1316"/></clipPath><g clip-path="url(#cl_5)"><path fill="#8B7283" transform="matrix(1.28505 0 0 1.28516 -0.00012207 0)" d="M0 0L2597 0L2597 1024L0 1024L0 0Z"/><path fill="#FAF9F7" transform="matrix(1.28505 0 0 1.28516 -0.00012207 0)" d="M445.746 315.324C497.804 315.995 550.067 315.252 602.117 315.541C618.255 315.631 692.288 311.893 700.868 320.672C700.624 322.74 700.872 322.451 699.417 323.851C692.068 330.89 680.559 330.194 671.101 329.799C651.748 328.991 632.403 329.196 613.034 329.113L455.567 329.245C455.266 358.201 455.61 387.76 455.646 416.764C475.826 429.104 495.915 442.991 516.116 455.48C553.506 478.594 590.897 501.869 627.744 525.84C653.638 542.685 678.323 555.831 702.447 575.355C702.934 604.665 703.222 633.979 703.313 663.293C703.386 684.093 703.422 721.751 699.54 741.87C682.224 744.946 658.411 743.669 640.25 743.329L573.057 742.938C561.348 742.94 545.214 744.87 534.053 742.115C523.053 739.4 439.033 681.164 433.598 672.039C432.43 670.079 432.395 669.647 432.908 667.531C442.717 661.251 477.823 688.331 487.226 694.73C501.924 704.598 516.693 714.358 531.532 724.01C545.742 707.778 565.253 690.648 580.836 675.295C614.067 642.553 649.472 610.871 682.516 578.1C659.843 561.452 633.571 546.01 609.575 530.952L504.384 464.645C483.782 451.751 459.377 437.297 440.241 422.969C439.211 391.916 438.576 354.657 441.787 323.255C441.999 321.178 444.532 317.182 445.746 315.324Z"/><path fill="#8B7283" transform="matrix(1.28505 0 0 1.28516 -0.00012207 0)" d="M685.551 595.646C689.777 606.738 688.05 708.492 688.153 729.289L555.219 728.48C553.74 727.763 554.429 728.184 553.421 726.336C556.834 716.969 669.171 611.294 685.551 595.646Z"/><path fill="#FAF9F7" transform="matrix(1.28505 0 0 1.28516 -0.00012207 0)" d="M1774.85 315.443C1784.55 315.172 1809.13 314.022 1813.4 324.299L1812.24 326.135C1799.89 332.661 1672.18 330.817 1652.53 330.659C1616.32 365.186 1579.87 401.602 1543.13 435.433C1543.71 510.506 1543.61 585.583 1542.82 660.655C1602.91 659.368 1663.36 659.485 1723.43 660.745C1728.76 660.857 1741.17 661.445 1737.28 669.972C1727.49 677.394 1676.75 675.259 1662.4 675.212L1565.75 675.023C1588.2 690.43 1615.46 704.385 1639.03 719.724C1645.84 724.341 1656.63 731.528 1664.8 733.537C1699.31 742.023 1767.98 726.086 1798.88 739.215C1800.95 741.665 1800.56 740.467 1800.33 743.687C1798.3 745.723 1795.73 746.345 1793.01 747.012C1772.99 751.93 1749.75 749.502 1729.18 749.206C1708.78 748.913 1686.61 751.833 1666.57 748.073C1639.68 743.028 1557.45 686.496 1528.6 669.093C1524.67 638.627 1525.92 598.849 1526.14 567.425C1526.47 522.834 1523.8 470.647 1530.92 427.188C1541.38 414.964 1557.23 399.916 1568.79 388.738C1594 364.488 1619.56 340.595 1645.46 317.069C1688.8 315.861 1731.91 317.167 1774.85 315.443Z"/><path fill="#FAF9F7" transform="matrix(1.28505 0 0 1.28516 -0.00012207 0)" d="M754.48 316.587C768.212 326.209 764.093 402.481 763.936 422.509C776.025 436.315 789.161 449.167 803.228 460.951C820.406 446.842 836.565 430.512 852.555 414.983C871.716 396.254 891.007 377.659 910.427 359.198C918.305 351.607 952.092 314.755 962.322 318.404C966.076 323.105 962.928 326.025 959.536 330.068C943.994 348.599 925.415 364.743 907.964 381.547C876.301 411.817 844.833 442.291 813.564 472.967C827.361 487.933 842.059 501.792 856.426 516.199C876.008 536.18 895.706 556.047 915.519 575.8C932.492 592.692 950.687 610.352 966.376 628.377C966.68 646.923 968.436 723.751 962.64 737.14C960.304 740.003 957.043 740.256 953.371 741.08C948.365 725.681 951.111 656.151 951.212 635.396C931.614 611.306 907.53 588.894 885.304 566.871C857.781 539.598 830.289 510.554 802.346 483.887C789.853 494.619 775.754 508.815 764.183 520.566L763.863 628.998C763.937 646.192 767.429 734.004 755.277 741.297C745.983 739.084 748.853 714.907 748.912 707L748.907 665.749L749.124 514.539C762.682 500.194 777.498 487.512 790.98 472.701C771.829 452.177 749.003 441.391 748.846 410.026C748.714 383.713 745.944 348.808 750.566 322.13C750.82 320.666 753.42 317.741 754.48 316.587Z"/><path fill="#FAF9F7" transform="matrix(1.28505 0 0 1.28516 -0.00012207 0)" d="M2046.47 314.055C2049.18 314.726 2052.16 315.126 2054.08 317.332C2062.05 326.489 2055.17 487.378 2053.76 506.96C1991.92 507.191 1930.08 506.648 1868.25 505.332C1868.28 531.379 1870.98 729.924 1867.43 738.612C1866.41 741.113 1864.27 743.966 1861.76 745.066C1860.24 745.729 1859.61 745.124 1858.15 744.554C1850.08 734.829 1852.52 685.929 1852.48 672.328L1851.76 578.75C1852.11 520.702 1852.8 462.657 1853.85 404.618C1853.99 388.512 1854.04 372.405 1854 356.298C1854 348.584 1850.99 314.735 1863.88 317.413C1871.63 325.177 1868.77 376.075 1868.69 388.846L1868.45 491.322C1925.97 491.753 1983.5 492.62 2041.01 493.924C2043.36 436.475 2038.94 378.104 2043.29 320.763C2043.49 318.183 2044.9 316.043 2046.47 314.055Z"/><path fill="#FAF9F7" transform="matrix(1.28505 0 0 1.28516 -0.00012207 0)" d="M1259.86 314.539C1280.95 313.154 1310.69 313.921 1332.13 314.067C1372.98 314.303 1413.83 314.813 1454.67 315.598C1478.78 316.053 1502.89 316.314 1527 316.38C1537.1 316.38 1586.62 313.193 1589.87 323.756C1585.19 331.139 1573.57 330.555 1565.91 330.483C1507.47 329.933 1449.42 327.747 1390.97 329.309C1387.92 349.688 1389.26 387.139 1389.37 408.597L1389.29 529.25C1389.06 556.683 1389.01 584.117 1389.15 611.551C1389.44 644.397 1390.85 677.623 1389.2 710.424C1388.95 715.346 1388.17 720.627 1383.51 723.017C1370.35 721.956 1373.99 678.464 1373.99 668.305L1373.97 587.297L1374.21 328.929C1353.8 329.153 1269.3 331.457 1255.26 325.497C1252.74 324.426 1251.94 323.576 1250.86 321.126C1251.82 316.827 1255.88 314.998 1259.86 314.539Z"/><path fill="#FAF9F7" transform="matrix(1.28505 0 0 1.28516 -0.00012207 0)" d="M1132.65 313.456C1152.49 312.707 1173.09 313.387 1193.02 312.862C1198.11 312.728 1203.23 314.11 1206.9 317.85C1207.89 321.164 1208.03 319.878 1206.54 322.691C1196.7 330.037 1138.33 327.939 1124.3 327.977C1091.84 328.214 1059.39 328.647 1026.94 329.274C1026.04 382.57 1026.47 436.441 1025.94 489.891C1062.43 489.997 1103.69 491.636 1139.65 490.453C1148.78 490.135 1180.88 488.432 1185.38 497.621C1183.91 500.11 1182.38 501.01 1179.63 501.978C1165.79 506.849 1046.59 505.693 1026.12 503.854C1022.74 503.551 1019.67 502.973 1016.59 501.551C1005.95 489.981 1011.12 338.463 1011.81 315.578C1051.99 314.058 1092.45 314.412 1132.65 313.456Z"/><path fill="#FAF9F7" transform="matrix(1.28505 0 0 1.28516 -0.00012207 0)" d="M2134.53 316.506C2141.29 319.498 2142.81 321.509 2143.01 329.089C2144.78 395.054 2142.71 461.098 2143.09 527.083L2144.89 667.142C2145.05 690.798 2145.01 715.065 2143.82 738.769C2143.72 740.837 2141.46 743.38 2140.09 745.002L2136.56 744.741C2127.84 739.571 2130.3 696.353 2130.3 685.642L2130.16 606.516C2129.36 513.6 2126.3 420.748 2129.57 327.787C2129.69 324.496 2132.84 319.433 2134.53 316.506Z"/><path fill="#FAF9F7" transform="matrix(1.28505 0 0 1.28516 -0.00012207 0)" d="M1016.15 515.549C1018.1 516.449 1021.13 517.496 1022.57 519.096C1029.21 526.471 1027.33 653.575 1027.35 669.255L1157.96 669.738C1183.59 669.735 1209.62 669.103 1235.25 670.275C1238.88 670.441 1244.94 671.622 1248.23 673.147C1250.93 674.398 1250.93 675.584 1251.58 677.911C1250.85 681.23 1250.23 681.605 1247.75 683.725C1204 683.034 1159.6 683.687 1115.78 683.484C1081.72 683.326 1047.49 685.034 1013.59 680.597C1011.94 649.634 1011.23 618.229 1011.49 587.202C1011.68 565.4 1008.55 535.782 1016.15 515.549Z"/><path fill="#FAF9F7" transform="matrix(1.28505 0 0 1.28516 -0.00012207 0)" d="M2047.34 520.533C2050.8 521.271 2053.88 522.267 2055.92 525.151C2057.39 530.239 2057.6 572.784 2056.95 578.957C2053.25 613.967 2064.1 722.271 2051.65 748.4C2050.56 747.77 2049.51 747.08 2048.5 746.332C2045.17 743.918 2043.36 741.875 2042.96 737.629C2041.58 722.951 2041.98 707.28 2042 692.551L2042.1 615.811L2042.27 556.975C2042.33 547.557 2042.37 537.442 2042.91 527.983C2043.02 526.178 2046.14 522.143 2047.34 520.533Z"/></g></svg>