<svg xmlns="http://www.w3.org/2000/svg" xmlns:xlink="http://www.w3.org/1999/xlink" stroke-linecap="round" viewBox="0 0 100 100" preserveAspectRatio="xMidYMid meet"><g><path d="M-0.266 29.308 C-0.266 29.308, -0.266 29.308, -0.266 29.308 M-0.266 29.308 C-0.266 29.308, -0.266 29.308, -0.266 29.308 M0.056 32.111 C1.059 30.993, 1.583 30.07, 2.534 28.73 M0.15 32.113 C1.144 30.78, 2.086 29.459, 2.474 28.792 M0.134 35.999 C1.547 33.637, 2.922 31.408, 4.724 29.26 M0.089 35.765 C1.18 34.094, 2.373 32.435, 4.655 29.088 M0.101 39.039 C2.368 36.378, 4.397 32.265, 7.22 28.645 M0.077 39.406 C1.478 36.986, 3.461 34.74, 7.547 28.679 M-0.239 42.641 C1.861 39.745, 4.387 36.483, 5.587 35.01 M-0.17 42.718 C1.687 40.491, 3.068 38.426, 5.755 34.87 M5.796 35.028 C6.512 33.511, 7.947 32.118, 9.765 29.108 M5.61 34.763 C7.229 32.582, 8.695 30.234, 9.609 29.071 M-0.509 46.574 C2.042 43.238, 4.323 40.068, 5.442 38.715 M-0.243 46.357 C1.608 43.954, 3.391 41.131, 5.603 38.49 M7.803 35.142 C8.745 33.906, 10.129 32.473, 12.664 28.83 M7.856 35.218 C9.708 32.605, 11.212 30.297, 12.442 28.666 M0.55 49.049 C2.405 46.259, 4.25 43.778, 5.153 42.154 M0.025 49.151 C1.726 47.003, 3.747 44.552, 5.464 41.949 M10.477 34.594 C12.011 32.73, 13.28 31.145, 14.817 29.171 M10.632 34.703 C12.097 32.49, 13.608 30.434, 14.64 28.979 M0.134 52.61 C1.448 51.152, 2.757 49.427, 5.856 44.423 M0.104 52.853 C1.492 50.98, 2.899 48.626, 5.896 44.701 M12.997 35.28 C14.447 33.187, 15.591 31.118, 17.016 29.062 M12.926 35.03 C13.701 33.737, 14.583 32.699, 17.071 29.333 M-0.393 56.577 C2.406 53.783, 3.98 50.429, 5.982 48.182 M0.145 56.4 C1.627 54.04, 3.566 51.492, 5.608 48.285 M15.536 34.464 C17.125 32.37, 18.773 30.601, 19.881 28.619 M15.728 34.45 C17.243 32.316, 18.759 30.071, 19.675 28.832 M-0.238 60.409 C1.118 57.619, 3.243 56.149, 5.639 52.174 M-0.137 60.007 C1.504 58.173, 2.787 55.879, 5.595 52.018 M17.657 34.936 C18.982 33.27, 19.835 31.93, 21.924 29.195 M17.785 34.919 C19.002 33.111, 20.305 31.4, 22.055 29.258 M0.011 63.442 C1.703 60.207, 4.308 57.076, 5.642 55.582 M-0.186 63.833 C1.639 60.778, 3.713 57.925, 5.385 55.66 M19.831 35.098 C21.74 32.59, 23.706 30.352, 25.043 28.467 M20.093 35.116 C21.731 33.078, 23.259 30.603, 24.6 28.661 M1.363 65.146 C2.59 63.531, 3.565 61.978, 5.877 58.406 M1.328 64.915 C3.083 62.301, 4.777 60.027, 6.01 58.383 M17.003 42.855 C17.244 42.586, 17.591 42.221, 18.276 41.282 M17.058 42.914 C17.372 42.517, 17.653 42.125, 18.19 41.31 M23.024 34.733 C24.004 33.131, 25.501 31.498, 26.741 29.076 M22.906 34.701 C23.749 33.589, 24.649 32.54, 26.933 28.986 M4.343 64.368 C4.921 63.497, 5.753 62.052, 8.229 58.775 M4.247 64.476 C5.594 62.294, 7.061 60.224, 8.098 58.672 M17.148 46.383 C18.131 45.145, 19.011 43.38, 21.236 41.075 M17.061 46.52 C18.133 45.044, 19.276 43.399, 20.941 40.732 M25.187 35.057 C26.355 32.848, 28.211 30.917, 29.809 28.409 M25.016 35.015 C26.511 33.252, 27.833 31.568, 29.803 28.671 M6.262 64.968 C7.773 62.356, 9.175 60.228, 11.249 58.021 M6.495 64.647 C7.579 63.029, 8.728 61.242, 11.133 58.186 M17.591 49.578 C19.163 46.849, 20.864 44.91, 22.184 42.635 M17.44 49.26 C19.01 47.189, 20.616 44.841, 22.103 42.955 M27.909 34.818 C29.505 32.872, 30.348 30.654, 31.896 28.844 M27.947 34.547 C28.913 33.266, 29.745 31.971, 31.999 29.026 M9.108 64.535 C10.292 63.028, 11.167 61.941, 13.274 58.689 M9.225 64.278 C10.252 62.993, 11.218 61.379, 13.188 58.54 M17.088 53.015 C18.331 51.206, 20.267 49.09, 22.514 45.373 M17.359 52.803 C18.86 50.379, 20.888 48.108, 22.662 45.697 M28.23 37.718 C29.682 35.912, 30.606 34.31, 34.538 29.339 M28.383 37.458 C29.934 35.394, 31.414 33.229, 33.987 29.431 M11.554 64.467 C12.612 63.196, 13.788 60.93, 15.743 58.304 M11.343 64.686 C12.482 63.472, 13.411 62.089, 16.128 58.121 M17.141 56.286 C19.33 53.748, 20.499 51.392, 22.646 49.431 M17.078 56.469 C18.139 54.956, 19.464 53.322, 22.55 49.255 M28.42 39.784 C31.401 36.681, 33.397 32.905, 37.269 28.683 M29.024 40.116 C30.832 37.877, 32.518 35.016, 37.18 28.899 M13.733 63.671 C16.29 60.661, 18.622 57.74, 22.803 53.148 M14.185 64.36 C16.698 60.826, 19.01 57.44, 22.323 52.719 M28.984 43.619 C30.056 41.264, 32.085 38.819, 33.74 36.493 M28.641 43.836 C30.08 41.783, 31.913 39.443, 33.953 36.623 M35.283 34.911 C36.32 33.281, 37.753 31.69, 39.131 29.219 M35.162 34.811 C36.4 33.352, 37.355 31.607, 39.241 29.091 M16.002 64.304 C18.414 61.764, 20.365 58.606, 22.335 56.082 M16.302 64.458 C17.492 62.911, 18.52 61.389, 22.087 56.447 M28.744 47.322 C30.082 45.786, 31.2 43.938, 33.672 40.018 M28.384 47.622 C29.967 45.227, 31.661 43.413, 33.644 40.123 M37.196 35.045 C38.798 32.786, 40.463 30.412, 41.89 28.647 M37.39 35.148 C38.619 33.509, 39.997 31.568, 41.986 28.668 M18.788 64.696 C19.555 63.378, 20.688 61.518, 22.79 59.151 M18.554 64.795 C20.186 62.676, 21.772 60.454, 22.677 59.302 M28.762 51.369 C30.579 47.966, 32.346 45.275, 33.526 43.992 M28.562 51.01 C30.402 48.644, 32.066 45.885, 33.563 43.558 M39.813 34.688 C41.425 32.834, 43.023 30.906, 44.381 28.947 M40.034 34.89 C40.893 33.595, 42.043 32.26, 44.155 28.963 M21.473 64.472 C22.399 62.989, 23.048 62.202, 25.26 58.611 M21.475 64.399 C22.838 62.262, 24.372 60.421, 25.46 58.764 M28.632 54.426 C29.739 53.41, 30.483 51.893, 33.315 47.038 M28.186 54.751 C29.519 52.974, 30.937 51.11, 33.637 47.338 M42.568 34.862 C43.832 33.367, 44.75 31.729, 47.066 28.881 M42.394 35.196 C44.129 32.757, 45.735 30.414, 46.976 28.47 M24.119 64.904 C26.893 60.451, 29.253 57.117, 33.728 50.965 M23.869 64.789 C25.687 62.023, 27.968 59.227, 33.601 50.667 M44.615 35.572 C45.345 34.034, 46.399 32.588, 49.043 29.28 M44.57 35.617 C45.987 33.308, 47.621 31.083, 48.998 29.015 M26.261 64.349 C28.039 62.074, 29.995 58.578, 33.513 54.179 M26.325 64.299 C28.327 61.517, 30.309 58.818, 33.753 53.736 M47.197 34.915 C48.579 33.454, 49.541 31.751, 51.222 29.254 M47.395 35.047 C48.72 32.972, 50.343 30.714, 51.376 29.181 M28.503 64.667 C29.553 63.031, 31.082 61.124, 33.977 56.987 M28.722 64.478 C29.961 62.51, 31.709 60.183, 33.715 57.422 M44.195 42.68 C44.66 42.161, 45.001 41.565, 45.449 40.98 M44.227 42.695 C44.598 42.199, 44.914 41.822, 45.398 41.036 M49.805 35.101 C50.726 33.474, 52.148 31.575, 54.02 28.712 M49.369 35.215 C50.41 34.095, 51.529 32.647, 54.049 28.896 M28.477 68.055 C30.267 65.984, 31.382 64.187, 33.605 60.806 M28.387 68.282 C30.122 65.878, 32.079 63.498, 33.806 60.913 M44.842 45.414 C45.416 44.498, 46.523 43.152, 48.106 40.595 M44.703 45.494 C45.543 44.426, 46.155 43.323, 48.269 40.542 M52.542 34.644 C53.943 32.749, 55.08 30.528, 56.208 29.392 M52.398 34.893 C53.111 33.583, 53.988 32.509, 56.354 29.18 M29.432 70.252 C30.132 69.091, 31.547 67.662, 33.561 64.426 M29.524 70.151 C30.713 68.294, 32.222 66.51, 33.62 64.588 M44.252 48.842 C46.151 46.343, 48.109 43.936, 50.544 41.041 M44.554 48.937 C45.836 47.065, 47.356 45.388, 50.273 41.123 M54.299 35.123 C55.222 34, 56.117 32.441, 59.219 28.791 M54.426 35.275 C55.945 33.157, 57.376 31.245, 59.145 28.609 M31.574 70.428 C33.553 68.004, 35.159 66.111, 36.105 64.268 M31.768 70.642 C32.848 68.958, 34.172 67.08, 36.488 64.047 M44.489 52.654 C46.392 50.009, 47.992 47.966, 50.384 44.195 M44.422 52.854 C46.088 50.468, 47.5 48.382, 50.329 44.598 M56.137 36.47 C57.953 34.085, 59.212 31.628, 61.499 28.772 M55.963 36.249 C57.529 34.437, 58.971 32.415, 61.513 29.006 M34.319 70.033 C35.806 68.296, 37.362 66.708, 38.405 64.566 M34.457 70.126 C35.834 68.262, 37.036 66.753, 38.658 64.479 M47.217 52.359 C48.037 51.135, 48.47 50.177, 50.205 48.001 M47.191 52.219 C48.226 50.862, 49.209 49.508, 50.188 48.156 M55.758 39.84 C58.897 36.123, 60.853 32.662, 64.27 28.612 M55.991 39.874 C58.111 36.507, 60.373 33.556, 64.115 28.654 M36.823 70.49 C38.018 68.862, 38.919 67.019, 40.686 64.654 M36.672 70.362 C37.688 68.936, 38.733 67.517, 40.839 64.707 M44.832 59.077 C44.832 59.077, 44.832 59.077, 44.832 59.077 M44.832 59.077 C44.832 59.077, 44.832 59.077, 44.832 59.077 M49.473 52.558 C49.758 52.263, 50.077 51.819, 50.712 51.004 M49.474 52.554 C49.918 52.006, 50.379 51.367, 50.617 50.914 M56.171 43.63 C57.839 41.215, 59.56 37.968, 61.852 35.399 M55.76 43.558 C57.406 41.071, 59.242 39.026, 61.888 35.55 M61.73 35.247 C62.458 33.748, 63.739 32.491, 66.372 29.186 M61.615 35.425 C62.959 33.642, 64.209 31.946, 66.465 29.111 M39.298 69.858 C41.032 67.539, 42.572 65.47, 43.669 64.442 M39.575 70.089 C40.389 68.52, 41.418 67.308, 43.632 64.172 M45.14 61.873 C45.892 61.158, 46.342 60.427, 47.679 58.473 M45.362 61.894 C46.106 60.723, 46.806 59.679, 47.627 58.673 M55.745 46.972 C57.627 44.578, 59.558 42.094, 61.265 39.057 M55.752 47.235 C56.971 45.768, 58.257 43.837, 61.619 39.009 M64.219 34.903 C66.043 32.838, 67.512 30.276, 68.441 29.096 M64.42 35.081 C66.179 32.923, 67.537 30.523, 68.541 29.287 M41.823 70.373 C43.77 66.871, 46.845 63.022, 49.403 59.428 M41.496 70.488 C43.692 67.832, 45.491 65.538, 49.707 58.9 M55.788 50.793 C58.168 48.001, 60.095 44.555, 62.014 41.862 M55.786 50.686 C57.107 49.048, 58.321 46.913, 61.96 41.813 M66.686 35.337 C68.655 32.919, 69.939 30.584, 71.187 28.697 M66.588 35.277 C68.406 32.969, 70.048 30.681, 71.397 28.994 M43.647 71.1 C46.205 66.697, 48.821 63.253, 52.997 58.318 M43.648 70.728 C46.537 67.06, 49.185 63.74, 52.664 58.699 M56.163 53.825 C57.846 51.312, 59.309 49.295, 62.225 45.814 M56.176 53.744 C57.211 52.058, 58.654 50.306, 61.807 45.637 M68.645 35.726 C70.02 34.177, 71.741 32.059, 73.25 29.44 M68.784 35.761 C69.939 34.142, 71.293 32.532, 73.709 29.174 M46.629 70.11 C48.056 68.796, 48.791 67.234, 50.844 64.365 M46.564 70.368 C48.253 68.235, 49.451 66.261, 50.726 64.43 M50.823 64.502 C52.045 62.817, 53.167 61.428, 54.764 58.987 M50.656 64.433 C52.206 62.68, 53.475 60.572, 54.732 58.898 M55.65 57.116 C57.799 54.493, 59.779 52.112, 61.462 49.174 M56.015 57.082 C57.867 54.928, 59.565 52.298, 61.696 49.152 M71.472 35.44 C73.092 33.241, 74.933 31.332, 76.16 28.93 M71.773 35.389 C72.85 33.49, 74.017 32.05, 76.479 28.878 M48.969 70.584 C49.562 69.699, 50.017 68.864, 50.749 68.164 M48.925 70.581 C49.551 69.668, 50.234 68.804, 50.682 68.152 M52.84 65.059 C55.367 61.444, 57.522 58.145, 61.613 52.476 M53.13 65.121 C55.019 61.7, 57.897 58.576, 61.395 52.628 M73.777 35.679 C75.221 34.255, 76.195 32.634, 78.808 29.252 M74.02 35.757 C74.93 34.401, 75.917 32.979, 78.663 29.252 M55.992 64.264 C57.177 62.362, 58.118 60.68, 61.191 56.478 M55.744 64.258 C57.593 62.219, 59.243 59.711, 61.522 56.485 M72.619 40.832 C72.619 40.832, 72.619 40.832, 72.619 40.832 M72.619 40.832 C72.619 40.832, 72.619 40.832, 72.619 40.832 M76.466 35.394 C77.663 33.67, 78.701 32.562, 81.357 28.928 M76.595 35.119 C78.059 33.276, 79.006 31.716, 81.443 28.663 M58.018 64.883 C59.832 62.526, 61.103 60.108, 62.753 58.553 M57.988 64.833 C59.043 63.19, 60.37 61.44, 62.617 58.192 M72.37 44.562 C73.183 43.506, 73.887 42.329, 74.848 41.03 M72.567 44.392 C73.161 43.559, 73.841 42.633, 74.819 41.224 M78.7 35.701 C79.79 34.407, 80.524 32.667, 83.5 28.877 M78.833 35.632 C80.852 32.889, 82.689 30.269, 83.609 29.046 M60.775 64.322 C61.516 62.683, 62.788 61.4, 64.73 58.596 M60.766 64.312 C62.085 62.57, 63.272 60.535, 64.728 58.488 M72.249 48.062 C74.061 46.106, 75.42 44.013, 77.943 40.859 M72.359 48.119 C74.385 45.299, 76.551 42.241, 77.593 40.895 M81.546 34.925 C82.503 33.341, 83.63 32.015, 85.52 29.543 M81.718 35.064 C82.957 33.026, 84.323 31.321, 85.656 29.346 M62.671 64.353 C64.49 62.693, 65.5 60.863, 67.635 58.284 M63.068 64.807 C64.452 62.548, 65.9 60.395, 67.663 58.143 M72.099 51.797 C74.374 48.846, 76.925 45.316, 78.789 42.658 M72.362 51.814 C73.869 49.086, 75.764 46.634, 78.629 42.722 M83.61 35.126 C85.44 33.558, 86.642 31.644, 88.36 28.782 M83.782 35.443 C85.023 33.94, 85.926 32.423, 88.646 28.968 M65.244 64.831 C66.722 62.629, 68.552 60.277, 70.098 58.438 M65.326 65.087 C67.042 62.631, 68.419 60.188, 69.768 58.602 M72.41 54.595 C74.103 52.233, 76.502 49.358, 78.436 46.304 M72.68 54.494 C74.466 51.784, 76.389 48.988, 78.526 46.329 M86.023 35.674 C87.491 34.266, 88.147 32.23, 90.691 29.2 M86.132 35.74 C87.931 33.026, 89.855 30.592, 90.901 29.105 M67.943 64.117 C70.069 60.355, 73.707 56.342, 77.978 49.5 M67.801 64.497 C72.128 58.934, 75.432 53.688, 78.54 49.933 M83.683 42.509 C84.081 41.975, 84.544 41.37, 84.841 40.956 M83.645 42.54 C84.112 41.948, 84.528 41.356, 84.844 40.915 M88.961 35 C90.897 32.542, 92.215 30.238, 93.351 28.703 M89.035 35.204 C90.464 33.065, 91.943 31.126, 93.566 28.707 M70.448 65.131 C72.701 61.043, 75.329 57.747, 78.477 53.99 M70.375 64.955 C73.005 60.813, 75.72 57.172, 78.547 53.766 M83.501 46.151 C84.582 44.796, 85.861 43.439, 87.14 41.233 M83.485 46.232 C84.466 44.994, 85.252 43.723, 87.122 41.188 M91.356 35.437 C93.005 33.204, 94.633 30.874, 95.894 28.854 M91.16 35.488 C92.512 33.584, 93.99 31.38, 95.6 29.246 M73.301 64.271 C75.201 61.388, 77.063 58.801, 78.714 55.92 M72.921 64.41 C74.161 62.698, 75.905 60.485, 78.706 56.219 M83.494 49.636 C84.366 47.516, 86.146 45.69, 89.881 40.475 M83.266 49.668 C84.697 47.701, 86.23 45.926, 89.771 40.703 M94.052 35.041 C94.856 33.611, 95.815 32.105, 98.718 28.812 M93.854 35.153 C95.436 33.281, 96.624 31.107, 98.458 28.573 M74.951 65.047 C76.603 63.025, 77.754 60.802, 78.968 59.299 M75.084 64.878 C76.14 63.368, 77.244 61.948, 79.282 59.045 M83.929 52.391 C85.755 50.42, 87.428 48.29, 89.758 44.636 M83.888 52.588 C85.399 50.193, 86.877 47.96, 89.885 44.63 M94.643 37.492 C96.637 34.936, 97.746 33.166, 100.717 28.663 M95.084 37.224 C96.819 34.357, 99.163 31.338, 100.661 28.872 M77.993 64.22 C79.452 62.588, 80.543 61.228, 81.985 58.543 M78.057 64.187 C78.938 62.713, 80.197 61.303, 82 58.631 M83.458 56.103 C85.498 54.43, 86.693 52.658, 89.471 47.966 M83.863 56.008 C85.938 53.112, 88.273 49.7, 89.789 47.903 M94.49 40.994 C96.822 38.438, 97.992 36.198, 100.45 32.886 M94.958 40.626 C96.013 39.009, 97.151 37.107, 100.645 32.414 M80.561 64.262 C81.637 61.264, 83.795 59.14, 89.781 52.283 M80.098 64.776 C83.044 60.88, 86.019 56.634, 89.405 51.674 M94.934 43.633 C96.305 41.752, 97.642 39.746, 100.786 36.434 M95.358 43.494 C97.297 40.526, 99.562 37.652, 100.653 36.357 M82.704 65.03 C84.895 60.897, 87.436 57.397, 89.571 54.912 M82.16 65.163 C83.973 63.063, 85.274 61.11, 89.268 55.2 M95.011 47.283 C96.966 44.75, 98.343 43.114, 100.259 39.871 M95.327 47.095 C96.534 44.964, 98.047 42.72, 100.227 39.77 M84.958 64.5 C86.587 62.365, 88.207 59.822, 89.506 58.952 M85.288 64.558 C86.07 63.002, 87.362 61.716, 89.221 58.927 M94.99 50.728 C96.403 48.616, 98.408 46.473, 100.257 43.642 M95.19 50.589 C96.305 48.79, 97.924 46.683, 100.134 43.218 M87.313 64.696 C88.515 62.74, 89.993 61.374, 91.865 58.361 M87.478 64.807 C89.344 62.445, 91.191 59.753, 92.1 58.316 M95.333 54.35 C96.571 52.062, 98.32 49.271, 100.8 45.788 M94.799 54.126 C97.064 51.765, 98.95 48.731, 100.652 45.997 M90.496 65.089 C93.647 58.532, 97.152 53.317, 101.122 50.387 M90.212 64.112 C92.473 61.139, 94.609 58.143, 100.96 49.875 M92.028 65.218 C94.782 60.658, 97.762 57.005, 100.68 53.795 M92.208 64.835 C94.207 62.301, 96.172 59.713, 100.397 53.209 M95.52 64.066 C96.857 62.531, 98.23 60.772, 100.147 57.024 M95.187 64.34 C96.452 62.176, 97.979 60.262, 100.295 56.844 M97.263 64.752 C98.401 63.04, 99.541 61.602, 100.11 60.795 M97.423 64.569 C98.029 63.695, 98.767 62.719, 100.375 60.686" stroke="#cb3837" stroke-width="0.976" fill="none"></path><path d="M-0.433 28.599 C25.805 28.758, 51.609 29.464, 99.63 28.689 M0.089 29.124 C38.527 28.771, 78.026 29.328, 99.712 28.741 M99.446 28.634 C100.798 38.126, 99.602 47.862, 99.325 64.111 M100.333 29.321 C99.974 41.058, 99.772 52.97, 100.358 64.366 M100.334 64.619 C86.419 64.692, 72.344 63.967, 49.623 63.587 M99.76 64.037 C87.639 64.723, 75.783 64.232, 49.734 64.413 M50.017 64.336 C50.001 65.737, 50.131 67.026, 50.209 69.94 M50.08 64.076 C49.934 65.815, 50.08 67.585, 50.111 69.975 M50.469 70.023 C42.995 70.833, 35.69 70.806, 27.505 69.555 M49.621 70.15 C42.825 70.433, 35.545 69.744, 27.789 69.788 M27.828 70.022 C27.932 67.577, 27.8 65.512, 27.865 64.047 M27.672 69.981 C27.706 68.972, 27.775 67.731, 27.834 64.077 M27.067 63.793 C17.408 64.67, 6.098 64.7, 0.483 63.667 M27.509 64.043 C19.006 64.463, 9.619 64.163, 0.166 63.847 M0.101 64.023 C-0.487 52.47, 0.106 41.985, 0.612 29.542 M0.207 64.48 C0.184 50.354, 0.21 36.614, -0.178 29.082 M5.913 58.114 C8.809 58.212, 12.696 58.366, 16.293 58.607 M5.449 58.311 C9.091 58.26, 12.379 58.375, 16.691 58.466 M16.851 57.84 C17.291 54.059, 16.974 49.869, 16.505 40.764 M16.595 58.202 C16.405 51.493, 16.66 44.206, 16.717 40.368 M16.465 40.682 C18.492 40.601, 20.594 40.698, 22.06 40.645 M16.778 40.788 C17.845 40.781, 19.068 40.606, 22.262 40.75 M22.401 40.87 C22.078 48.034, 22.396 54.227, 22.775 58.811 M22.049 40.863 C22.021 45.1, 22.054 49.847, 22.022 58.295 M22.01 58.174 C24.138 58.213, 25.713 58.288, 28 58.204 M22.246 58.405 C24.059 58.229, 26.039 58.318, 27.887 58.396 M27.679 58.775 C28.413 52.643, 28.037 46.273, 27.646 34.306 M28.103 58.615 C27.663 52.451, 27.751 46.075, 28.058 34.488 M28.063 34.681 C20.883 34.624, 14.507 35.102, 5.208 34.381 M27.674 34.667 C23.147 35.149, 18.418 34.74, 5.319 34.454 M5.585 34.287 C4.891 42.768, 5.189 50.771, 6.027 57.948 M5.746 34.852 C5.643 43.045, 5.498 50.312, 5.689 58.217 M33.664 34.931 C32.982 43.629, 33.858 53.301, 33.63 63.841 M33.061 34.815 C33.325 46.024, 32.943 57.286, 33.252 64.512 M33.241 64.071 C36.913 63.819, 40.561 63.805, 44.162 64.312 M33.31 64.041 C36.608 63.984, 40.377 64.23, 44.632 64.238 M44.26 64.341 C44.449 62.138, 44.616 60.523, 44.422 58.507 M44.535 64.207 C44.568 62.802, 44.363 61.688, 44.419 58.217 M44.153 58.35 C47.159 58.327, 49.364 58.108, 55.609 57.987 M44.46 58.2 C47.462 58.137, 50.755 58.441, 55.524 58.28 M55.874 58.614 C55.454 50.451, 54.949 43.316, 56.209 35.05 M55.166 57.949 C55.762 51.527, 55.681 45.161, 55.431 35.031 M54.772 35.42 C50.456 34.589, 45.452 35.169, 32.872 34.61 M55.794 35.05 C47.438 34.475, 39.882 34.745, 32.952 34.587 M44.493 40.661 C45.96 40.493, 47.68 40.82, 50.196 40.739 M44.34 40.61 C46.412 40.69, 48.39 40.799, 49.929 40.639 M50.134 40.359 C49.938 43.884, 49.748 47.13, 49.778 52.251 M50.155 40.906 C50.036 44.862, 50.159 49.162, 49.831 52.552 M50.14 52.5 C48.606 52.22, 47.285 52.464, 44.451 52.624 M49.897 52.419 C48.738 52.451, 47.327 52.533, 44.369 52.408 M44.802 52.103 C44.576 49.562, 44.361 46.768, 44.111 40.859 M44.468 52.39 C44.254 48.311, 44.252 44.088, 44.318 40.736 M61.244 35.216 C60.338 39.721, 61.496 45.914, 60.583 58.045 M60.819 34.709 C61.218 43.706, 61.13 52.516, 60.994 57.961 M60.758 58.097 C64.014 58.173, 65.766 58.55, 71.886 58.345 M61.19 58.498 C64.648 58.117, 68.228 58.388, 72.152 58.372 M71.543 58.238 C71.71 53.17, 72.859 48.367, 72.228 40.805 M71.879 58.44 C72.467 51.732, 71.947 45.363, 71.949 40.885 M72.338 40.86 C73.485 40.87, 74.817 40.798, 77.895 40.791 M72.162 40.755 C74.422 40.623, 76.539 40.685, 77.785 40.703 M77.833 40.323 C78.269 45.113, 77.586 48.415, 78.05 57.615 M77.709 40.976 C77.408 45.232, 77.424 50.178, 77.851 58.039 M77.938 58.107 C79.586 58.501, 81.228 58.307, 83.319 58.29 M77.893 58.315 C79.214 58.192, 80.551 58.346, 83.319 58.307 M83.176 58.96 C83.158 53.074, 83.855 46.763, 84.014 41.338 M83.399 58.626 C83.268 52.66, 82.959 47.318, 83.194 40.447 M83.333 40.775 C85.109 40.79, 86.734 40.456, 89.088 40.737 M83.262 40.784 C84.775 40.774, 86.016 40.803, 88.94 40.604 M88.361 40.274 C88.425 45.112, 88.664 48.295, 88.446 58.162 M89.189 40.656 C89.187 44.887, 88.854 48.289, 88.878 58.063 M88.814 58.312 C90.279 58.33, 91.323 58.233, 94.554 58.326 M88.92 58.246 C90.822 58.222, 92.914 58.365, 94.484 58.374 M93.858 58.992 C95.177 51.572, 94.712 46.876, 93.948 34.452 M94.284 58.3 C94.379 53.195, 94.231 47.627, 94.629 35.068 M93.772 34.078 C86.127 34.86, 76.544 35.362, 61.438 34.397 M94.543 35.089 C86.976 34.897, 79.156 34.914, 61.128 34.685" stroke="#cb3837" stroke-width="1" fill="none"></path></g></svg>