<svg xmlns="http://www.w3.org/2000/svg" xmlns:xlink="http://www.w3.org/1999/xlink" stroke-linecap="round" viewBox="0 0 100 100" preserveAspectRatio="xMidYMid meet"><defs><clipPath id="a_0"><path d="M0 0h100v100H0z"></path></clipPath></defs><g clip-path="url(#a_0)"><path d="M0 0 C0 0, 0 0, 0 0 M0 0 C0 0, 0 0, 0 0 M-0.081 3.574 C0.885 2.192, 1.689 1.074, 2.271 0.256 M-0.187 3.546 C0.311 3.006, 0.834 2.314, 2.25 0.276 M-0.552 7.031 C2.021 4.56, 3.827 1.726, 5.216 -0.348 M-0.353 7.143 C1.522 4.937, 2.981 2.455, 5.073 -0.267 M0.291 9.9 C2.193 6.581, 4.761 3.899, 7.575 0.598 M0.354 10.174 C3.068 6.207, 5.841 2.462, 7.101 0.322 M0.659 13.293 C2.87 9.084, 6.559 4.934, 9.42 0.216 M-0.051 13.594 C3.339 9.179, 6.149 5.04, 10.029 0 M0.201 16.665 C3.774 13.114, 6.48 9.092, 12.019 0.209 M-0.089 17.076 C4.568 10.675, 9.732 3.572, 12.259 -0.24 M-0.857 20.797 C4.762 13.03, 10.603 5.908, 14.395 -0.489 M0.267 21.178 C2.971 16.492, 6.295 11.2, 15.123 -0.11 M-0.04 24.622 C6.514 15.436, 13.67 5.162, 17.826 0.566 M-0.44 24.614 C4.279 17.694, 8.93 11.333, 16.972 -0.019 M-0.554 26.695 C6.763 18.301, 12.174 10.036, 20.196 -0.048 M0.297 27.527 C6.561 17.833, 13.415 9.091, 19.787 0.645 M0.006 31.266 C6.161 23.31, 11.23 15.112, 22.066 -0.62 M0.43 31.106 C5.55 23.06, 11.211 14.813, 22.478 -0.439 M0.273 34.276 C6.817 24.18, 14.128 14.632, 24.064 -0.196 M-0.117 34.262 C5.524 27.182, 11.03 19.275, 24.175 -0.123 M-0.095 37.485 C8.899 24.462, 18.667 11.067, 27.673 -0.594 M0.066 38.05 C9.435 25.444, 18.527 11.841, 27.335 -0.325 M0.092 41.732 C8.744 27.563, 19.181 14.384, 29.709 -0.222 M-0.511 41.617 C11.477 25.535, 22.544 9.432, 29.331 0.449 M0.062 44.201 C10.451 29.138, 20.919 14.536, 31.696 -0.113 M0.185 44.147 C9.678 30.103, 20.193 16.61, 32.541 -0.247 M-0.519 48.543 C10.756 32.268, 21.919 18.116, 34.336 0.661 M0.42 48.084 C8.193 37.152, 15.105 27.145, 34.329 -0.328 M-0.533 51.678 C8.797 39.872, 16.602 27.648, 36.712 -0.233 M0.02 51.407 C10.191 37.155, 20.709 23.55, 36.558 0.294 M0.189 55.516 C12.294 37.149, 24.331 19.919, 40.06 0.127 M-0.519 54.852 C10.86 39.641, 21.635 24.537, 39.282 0.108 M-1.03 59.426 C8.562 45.845, 17.613 33.578, 41.158 0.036 M-0.008 59.056 C13.911 38.142, 28.768 17.926, 41.237 0.013 M0.4 61.492 C12.509 44.072, 25.31 28.35, 45.112 -0.062 M-0.152 61.31 C15.827 39.593, 31.57 17.931, 44.151 -0.42 M0.331 64.644 C12.037 48.39, 23.804 31.8, 46.237 -0.186 M0.367 65.576 C17.261 41.219, 34.404 17.568, 46.327 0.325 M0.489 69.053 C13.35 49.85, 26.905 32.488, 49.431 0.343 M-0.387 68.761 C12.418 52.015, 24.305 35.408, 49.136 -0.436 M0.477 71.857 C12.283 55.311, 23.939 38.374, 51.048 0.292 M-0.09 72.346 C18.385 46.118, 37.267 19.799, 51.401 0.083 M-0.118 76.428 C11.665 57.617, 25.583 40.409, 53.292 0.091 M-0.543 75.921 C20.458 47.328, 40.814 18.644, 53.704 0.007 M-0.423 78.425 C13.555 60.592, 24.966 43.365, 56.001 -0.049 M0.354 79.147 C17.934 53.871, 35.74 29.717, 56.479 -0.001 M-0.676 82.334 C16.836 58.189, 35.669 34.179, 58.824 0.38 M-0.294 82.563 C21.532 52.58, 42.211 22.836, 58.507 0.471 M0.384 86.65 C14.998 65.629, 29.994 44.233, 62.019 0.16 M-0.247 86.272 C23.534 52.872, 46.97 20.332, 61.622 -0.158 M-0.077 89.215 C14.888 70.25, 28.234 49.819, 64.124 -0.665 M-0.218 89.956 C16.777 65.518, 33.753 42.095, 63.898 -0.184 M0.309 92.478 C20.121 65.875, 40.061 37.173, 66.536 -0.427 M0.146 93.227 C16.823 68.671, 33.63 45.271, 66.537 -0.367 M0.027 96.751 C22.579 64.631, 46.225 32.152, 69.584 0.754 M0.28 96.372 C21.754 65.188, 43.326 34.841, 68.655 -0.257 M0.074 99.946 C22.55 68.857, 44.335 36.596, 71.721 0.546 M-0.183 99.975 C17.666 76.018, 34.486 52.047, 71.19 0.069 M1.116 100.32 C17.157 78.614, 33.78 54.807, 73.308 -0.275 M2.056 100.753 C17.622 78.837, 33.248 55.863, 73.798 -0.388 M4.222 100.308 C20.771 78.472, 35.861 56.104, 76.394 0.284 M4.602 100.07 C30.031 64.266, 55.884 29.184, 76.139 0.457 M6.127 101.348 C25.846 74.122, 43.696 49.765, 78.312 -0.58 M6.553 100.656 C23.34 77.228, 39.996 53.622, 78.993 0.036 M8.831 99.469 C29.149 73.824, 47.455 47.709, 81.349 -0.284 M9.602 100.48 C25.478 78.109, 41.318 55.545, 81.039 0.004 M11.092 101.084 C28.788 76.884, 45.278 54.011, 83.726 -0.897 M11.845 100.83 C31.213 72.663, 51.682 44.587, 83.749 -0.713 M13.218 100.97 C36.736 69.434, 57.908 38.857, 86.071 -0.551 M13.688 100.981 C42.467 60.905, 71.162 20.733, 85.771 -0.241 M16.849 101.184 C39.973 68.133, 62.745 35.508, 88.21 0.535 M16.738 100.599 C34.419 76.17, 52.04 51.54, 88.037 0.105 M19.137 100.381 C41.589 70.268, 63.434 37.738, 90.556 -0.225 M19.1 100.946 C34.847 78.008, 51.63 55.336, 91.059 -0.173 M21.544 99.791 C48.331 62.903, 75.749 25.079, 93.081 0.726 M21.682 99.943 C42.765 71.552, 62.671 43.432, 93.417 0.446 M24.311 101.403 C41.942 75.504, 61.309 50.163, 96.117 -0.126 M23.779 100.647 C51.774 61.48, 79.499 21.832, 95.671 -0.23 M26.238 100.334 C53.974 61.971, 81.052 24.123, 98.024 0.814 M26.769 99.899 C49.881 68.032, 72.618 35.561, 98.346 0.364 M28.755 100.609 C44.589 78.819, 61.472 56.451, 100.793 1.029 M28.89 100.799 C55.941 63.278, 81.842 26.524, 100.238 0.618 M32.503 99.531 C58.448 62.44, 84.611 26.053, 99.711 4.477 M31.336 99.759 C53.596 68.916, 76.716 37.4, 100.402 4.021 M33.401 100.262 C55.79 70.023, 77.348 40.398, 101.032 7.474 M33.841 100.574 C58.442 65.857, 83.137 31.469, 100.528 6.928 M36.244 100.202 C50.94 80.61, 65.463 60.499, 100.597 9.788 M36.184 100.686 C52.563 78.425, 68.698 55.073, 100.676 10.344 M39.288 101.11 C61.807 69.484, 83.316 38.046, 100.771 13.373 M39.085 100.396 C51.305 82.753, 63.897 65.695, 100.928 14.148 M40.422 100.812 C63.668 70.504, 84.372 39.23, 100.848 17.306 M41.499 100.458 C58.73 75.5, 77.091 50.135, 100.101 17.513 M43.571 99.989 C64.642 71.122, 85.75 43.119, 100.751 20.642 M44.119 99.951 C65.935 69.212, 87.989 37.998, 100.163 21.251 M45.965 101.155 C59.858 80.048, 75.144 61.665, 100.744 24.478 M46.168 100.35 C60.441 81.407, 74.024 61.402, 100.655 24.165 M48.316 100.225 C62.473 80.811, 75.415 62.282, 100.626 27.684 M48.683 100.178 C63.816 78.42, 79.372 56.972, 101.001 27.865 M51.695 99.898 C69.864 72.716, 89.833 45.801, 100.751 31.293 M51.303 100.679 C67.822 76.38, 85.043 52.382, 100.235 31.449 M52.722 100.441 C71.594 74.454, 90.52 49.25, 101.219 34.232 M53.378 100.486 C70.137 77.68, 86.565 53.849, 100.111 34.717 M56.15 100.997 C66.686 86.402, 76.674 71.956, 99.992 38.585 M56.06 100.42 C72.656 76.9, 89.084 54.151, 100.324 38.527 M57.843 100.11 C67.114 87.853, 77.377 74.694, 101.391 41.252 M58.397 100.699 C69.226 86.086, 79.689 71.46, 100.53 41.536 M61.576 100.095 C72.908 83.72, 85.645 67.212, 100.102 44.879 M61.239 100.002 C69.549 88.659, 77.906 77.564, 100.651 44.62 M63.902 100.431 C70.805 90.57, 78.396 79.144, 100.588 48.651 M63.628 100.741 C76.635 81.751, 89.988 63.014, 100.212 48.358 M66.733 99.722 C76.089 87.045, 85.13 72.871, 101.086 52.824 M66.482 100.113 C75.784 87.262, 85.258 73.877, 100.243 51.845 M68.614 100.28 C78.136 85.635, 89.313 71.66, 100.516 55.184 M68.186 100.175 C77.726 87.68, 86.814 75.377, 100.502 55.84 M70.314 101.309 C80.339 86.253, 89.985 72.335, 101.386 57.907 M70.896 100.508 C78.592 89.483, 86.438 78.059, 101.096 58.319 M73.809 101.017 C83.404 86.305, 93.312 73.544, 100.991 61.691 M73.431 100.222 C82.732 87.606, 92.072 74.285, 100.787 62.49 M75.666 101.134 C84.789 89.27, 91.685 76.654, 100.429 65.351 M75.773 100.358 C81.771 92.064, 87.43 83.771, 100.725 65.873 M78.23 100.891 C83.848 93.355, 88.641 87.04, 100.598 69.544 M78.566 100.159 C84.155 92.782, 89.537 84.501, 100.354 69.117 M80.105 100.804 C85.03 93.735, 91.536 85.95, 100.303 72.432 M80.707 100.334 C86.701 91.161, 93.891 82.357, 100.633 73.15 M83.129 100.639 C87.233 95.363, 90.284 90.475, 101.561 75.745 M83.436 100.119 C88.069 93.884, 92.535 87.447, 100.458 75.929 M86.043 99.999 C89.607 95.542, 93.462 88.599, 100.004 79.709 M85.517 100.546 C89.098 96.514, 92.139 92.05, 100.967 79.253 M87.692 100.299 C92.959 94.102, 95.958 88.304, 101.088 83.439 M87.551 100.707 C90.16 96.986, 93.361 92.997, 100.873 83.047 M90.082 99.785 C93.702 96.017, 96.126 91.432, 100.827 86.306 M90.815 100.188 C93.011 97.47, 95.058 93.996, 100.719 86.568 M92.365 100.212 C94.739 97.417, 96.905 94.705, 100.787 90.441 M92.785 100.852 C95.118 97.57, 97.265 94.426, 100.342 90.043 M95.841 99.999 C96.913 97.645, 98.943 95.199, 100.598 92.874 M95.498 100.216 C96.937 98.163, 98.771 95.824, 100.811 93.004 M97.894 100.586 C98.634 99.422, 99.658 98.286, 100.642 96.52 M97.807 100.514 C98.692 99.473, 99.373 98.226, 100.721 96.429" stroke="#cc0000" stroke-width="0.976" fill="none"></path><path d="M-0.433 -0.337 C25.805 -0.178, 51.609 0.528, 99.63 -0.247 M0.089 0.188 C38.527 -0.165, 78.026 0.392, 99.712 -0.195 M99.446 -0.302 C100.809 26.412, 99.614 53.37, 99.325 99.925 M100.333 0.385 C100.007 34.499, 99.805 68.788, 100.358 100.18 M100.334 100.433 C72.583 100.586, 44.671 99.861, -0.377 99.401 M99.76 99.851 C75.598 100.736, 51.7 100.245, -0.266 100.227 M0.057 100.511 C0.388 73.953, 0.832 47.015, 0.71 -0.427 M0.271 99.625 C-0.658 70.193, -0.161 40.864, 0.377 -0.307" stroke="#cc0000" stroke-width="1" fill="none"></path></g><g clip-path="url(#a_0)"><path d="M10.993 10.389 C10.993 10.389, 10.993 10.389, 10.993 10.389 M10.993 10.389 C10.993 10.389, 10.993 10.389, 10.993 10.389 M10.721 13.878 C11.239 13.472, 11.811 12.756, 13.282 10.6 M10.79 13.953 C11.825 12.774, 12.683 11.515, 13.248 10.696 M10.517 17.482 C12.352 15.664, 13.463 13.344, 15.54 10.835 M10.749 17.563 C12.117 15.433, 13.718 13.513, 15.53 11.227 M10.866 21.582 C13.75 17.167, 16.788 13.245, 17.968 10.843 M10.806 21.081 C12.878 17.79, 15.5 14.536, 17.978 10.824 M10.138 24.789 C13.812 20.255, 16.366 16.305, 20.47 11.473 M10.552 24.573 C13.245 21.427, 15.588 18.078, 20.327 11.05 M10.749 27.337 C15.198 21.331, 20.679 13.966, 23.305 9.84 M10.55 27.588 C15.041 21.431, 19.629 15.59, 22.897 10.487 M11.562 31.936 C13.592 27.417, 16.801 21.687, 25.659 11.387 M10.885 31.302 C16.483 23.559, 22.358 15.276, 25.716 11.198 M10.25 35.203 C15.026 27.821, 19.741 21.574, 27.731 10.418 M10.264 34.547 C16.416 26.871, 21.649 19.27, 28.589 10.264 M10.663 39.053 C16.936 28.477, 24.404 19.806, 31.152 11.407 M10.471 38.633 C15.686 31.67, 20.398 24.583, 30.336 10.568 M11.615 41.795 C16.367 33.536, 22.147 24.864, 33.746 9.715 M11.116 41.128 C17.34 32.047, 23.933 23.241, 33.022 10.152 M10.625 44.503 C16.647 37.896, 22.332 29.603, 34.929 10.005 M10.858 44.534 C19.185 32.798, 27.845 20.919, 35.639 10.544 M11.093 48.476 C20.299 36.43, 29.103 22.462, 37.876 10.89 M10.879 48.459 C19.045 36.025, 28.156 24.093, 37.76 10.914 M10.041 52.005 C22.471 35.839, 33.222 19.704, 40.244 11.287 M10.499 51.902 C20.149 38.145, 29.89 24.655, 40.15 10.747 M10.372 55.089 C19.631 40.992, 30.758 27.984, 43.29 11.18 M10.136 55.874 C20.436 41.318, 30.652 27.875, 42.573 11.318 M11.529 58.547 C19.418 47.296, 25.676 37.961, 45.241 9.867 M10.64 58.432 C19.076 47.462, 26.714 36.22, 45.449 10.244 M10.83 61.589 C20.939 47.249, 31.919 34.235, 47.49 10.771 M10.928 62.152 C22.384 45.485, 33.818 29.433, 47.935 11.014 M9.856 64.874 C21.789 49.962, 32.385 35.212, 49.565 11.687 M10.245 65.909 C18.98 53.649, 27.507 42.02, 49.587 11.152 M10.979 69.678 C24.4 48.302, 39.558 28.416, 51.849 10.346 M10.596 69.149 C22.216 52.996, 34.086 37.621, 52.96 10.883 M10.216 71.399 C26.404 50.28, 42.012 29.367, 54.303 10.767 M11.073 71.716 C22.264 56.171, 33.503 40.52, 54.626 11.004 M11.356 76.325 C28.182 51.496, 45.632 27.959, 57.03 11.105 M11.078 75.721 C23.363 58.138, 35.961 41.461, 57.62 11.048 M9.95 79.093 C23.398 62.722, 35.019 46.657, 59.276 10.87 M11 78.925 C22.405 63.213, 33.634 47.326, 59.531 11.206 M10.645 82.657 C28.881 56.857, 47.869 30.721, 62.181 10.757 M10.629 83.011 C22.396 65.536, 35.257 48.823, 62.341 10.478 M10.428 85.393 C26.2 64.997, 40.838 44.296, 49.957 30.544 M10.697 85.407 C20.15 73.092, 28.347 61.101, 49.889 31.279 M50.471 31.913 C54.992 24.174, 59.951 18.817, 64.546 11.178 M49.807 31.208 C54.231 25.306, 59.247 19.512, 64.815 11.039 M10.098 89.492 C25.596 69.171, 38.606 49.521, 49.435 35.306 M11.086 89.519 C20.479 76.272, 30.026 62.822, 50.266 35.044 M52.528 31.295 C58.894 23.047, 64.271 16.1, 67.043 11.451 M53.015 30.593 C56.456 26.754, 59.167 22.12, 67.173 10.932 M12.926 90.222 C22.484 75.37, 32.443 62.22, 50.672 37.018 M13.372 89.188 C24.466 74.348, 35.63 58.46, 50.479 37.6 M55.99 31.149 C58.988 25.164, 62.111 21.078, 69.666 10.812 M55.101 31.522 C59.923 24.732, 65.188 17.728, 70.195 11.246 M16.019 89.814 C26.716 73.701, 37.04 59.069, 50.056 40.707 M15.873 89.272 C26.806 74.282, 37.396 58.706, 50.73 41.341 M57.43 31.406 C62.034 26.536, 64.671 22.022, 72.346 10.645 M57.683 30.47 C60.808 26.574, 64.127 21.696, 71.765 11.147 M18.757 89.402 C25.588 80.271, 31.972 69.207, 50.213 44.278 M17.945 89.462 C25.432 79.728, 32.186 69.737, 50.436 44.87 M60.372 30.556 C65.086 23.233, 71.116 17.047, 75.038 11.198 M59.896 31.4 C64.279 25.493, 67.76 20.978, 74.56 10.6 M20.546 88.985 C27.56 80.159, 34.079 70.524, 50.474 48.96 M20.543 88.647 C28.96 78.333, 36.379 67.797, 50.282 48.247 M62.582 31.966 C65.748 27.319, 68.454 22.777, 77.048 10.881 M62.086 31.684 C66.024 26.523, 69.383 21.965, 76.975 10.857 M23.341 89.921 C30.005 78.778, 38.542 68.061, 50.442 50.484 M22.735 89.407 C31.873 77.415, 39.831 65.906, 50.597 50.963 M64.711 31.117 C71.243 22.633, 77.235 14.283, 79.306 10.169 M65.257 31.339 C69.903 24.452, 74.465 17.746, 79.8 10.771 M25.921 89.237 C31.696 80.515, 37.983 71.845, 50.052 54.326 M25.987 88.717 C33.609 78.696, 40.974 67.501, 50.208 54.787 M67.746 31.636 C70.114 26.974, 74.254 22.847, 82.091 10.894 M67.312 31.058 C72.733 23.656, 78.547 15.858, 81.943 11.282 M28.018 88.514 C35.145 80.1, 40.374 72.33, 50.681 58.842 M28.281 89.644 C33.532 81.694, 39.724 73.976, 50.357 58.497 M69.898 30.816 C75.812 23.125, 80.822 14.484, 84.11 10.556 M69.952 30.934 C75.83 23.005, 81.421 15.269, 84.707 10.931 M30.402 89.014 C36.71 81.004, 42.764 71.301, 50.411 62.51 M30.211 89.663 C34.556 83.779, 39.438 77.629, 50.355 62.328 M69.99 34.954 C76.891 25.224, 82.081 17.017, 86.617 11.215 M70.453 34.194 C76.784 25.132, 83.149 16.416, 86.712 11.144 M32.332 88.512 C38.04 81.648, 45.155 73.436, 50.793 64.712 M32.827 89.094 C38.841 81.21, 44.462 73.685, 50.754 65.146 M69.763 38.336 C76.674 27.814, 83.85 18.196, 88.709 11.406 M69.984 37.783 C74.372 32.128, 78.715 26.21, 89.188 10.961 M35.4 89.328 C38.882 84.703, 42.481 78.169, 50.513 68.173 M35.478 89.934 C41 82.195, 46.059 74.512, 50.609 68.095 M70.707 41.004 C74.343 34.768, 78.588 29.999, 90.43 14.223 M70.026 40.938 C77.816 31.238, 84.355 21.023, 89.884 13.909 M38.824 88.649 C41.465 83.917, 45.887 78.434, 49.699 71.699 M37.912 88.978 C42.569 82.736, 47.292 76.949, 50.584 71.729 M70.646 43.947 C77.754 34.021, 84.851 23.479, 89.236 17.616 M70.166 44.77 C75.026 37.173, 80.609 30.924, 89.526 17.901 M40.36 89.085 C43.429 86.37, 45.274 82.122, 50.02 75.795 M40.038 89.502 C42.94 85.685, 45.284 82.258, 50.219 75.657 M69.644 48.234 C75.447 39.609, 81.724 31.535, 90.087 21.661 M70.4 47.802 C77.367 37.268, 85.238 26.861, 89.515 21.308 M43.297 89.273 C45.313 85.309, 47.892 81.848, 49.728 79.45 M42.902 88.889 C45.737 85.08, 48.605 81.484, 50.34 79.063 M70.069 51.056 C76.843 42.927, 83.076 32.604, 88.642 24.554 M69.996 52.012 C74.623 45.676, 78.969 39.414, 89.121 24.953 M45.234 89.432 C47.233 86.288, 49.095 83.923, 50.566 82.079 M45.183 89.225 C46.314 87.812, 47.678 86.188, 50.694 82.045 M69.976 55.317 C75.406 48.593, 80.193 41.985, 89.238 28.195 M70.078 55.222 C75.779 47.059, 82.182 38.83, 89.455 27.695 M47.557 89.605 C48.151 88.87, 48.836 88.217, 50.419 85.52 M47.571 89.696 C48.08 88.968, 48.677 88.04, 50.43 85.676 M70.893 58.422 C77.176 48.011, 84.138 38.25, 88.939 31.029 M70.611 57.885 C75.908 50.749, 81.046 42.865, 89.932 31.668 M70.891 61.698 C75.931 54.835, 81.378 47.018, 89.103 34.398 M70.315 61.592 C76.148 52.862, 82.8 44.462, 89.574 34.649 M69.75 64.726 C76.092 57.553, 81.578 50.772, 89.724 38.784 M69.929 65.535 C76.343 56.169, 82.547 47.356, 89.645 38.218 M70.62 68.297 C75.135 61.533, 79.979 53.928, 90.435 40.954 M70.149 69.225 C77.191 58.83, 84.384 49.402, 89.959 41.101 M70.564 71.445 C77.061 63.043, 83.747 53.265, 89.92 45.692 M70.426 71.901 C77.306 62.844, 83.035 53.422, 89.605 44.732 M70.698 74.624 C75.263 68.737, 79.045 62.753, 89.898 48.853 M70.181 75.615 C74.754 69.351, 78.958 63.715, 89.616 48.63 M70.572 78.756 C75.432 72.87, 79.959 65.094, 89.257 51.737 M69.883 79 C74.847 72.002, 80.647 64.609, 89.395 51.875 M70.306 82.012 C75.689 73.157, 83.397 64.966, 89.919 56.2 M69.868 82.753 C74.1 77.137, 77.815 71.676, 89.66 55.739 M70.051 86.114 C75.367 79.144, 80.411 71.772, 89.091 58.969 M70.089 85.861 C75.117 79.177, 80.274 71.249, 89.392 58.711 M69.664 89.872 C74.645 84.821, 78.595 78.928, 90.212 62.013 M69.677 89.44 C76.984 79.95, 83.129 70.634, 89.862 62.378 M72.106 89.042 C75.459 84.289, 79.964 79.013, 90.127 65.996 M72.229 88.913 C77.685 82.127, 82.435 74.839, 89.693 65.595 M75.36 89.239 C78.551 85.576, 81.433 80.147, 90.027 69.455 M74.412 89.23 C78.593 83.873, 82.568 78.602, 89.695 69.57 M77.619 89.643 C81.505 84.271, 84.785 79.297, 89.895 71.894 M77.836 88.894 C81.151 83.358, 85.53 77.718, 89.587 72.077 M79.566 89.468 C82.08 85.817, 86.087 81.102, 89.809 76.092 M79.959 89.522 C82.706 85.444, 85.958 81.432, 89.63 75.735 M82.242 89.547 C84.639 87.209, 85.997 83.812, 89.878 78.912 M81.683 89.712 C84.649 86.149, 87.303 82.19, 89.622 79.11 M84.624 89.286 C85.606 88.135, 86.309 87.029, 89.255 82.996 M84.783 89.352 C85.903 87.967, 86.914 86.439, 89.326 82.871 M86.752 89.921 C87.509 88.714, 88.364 88.02, 89.116 86.52 M86.887 89.717 C87.725 88.548, 88.578 87.354, 89.237 86.5" stroke="#ffffff" stroke-width="0.905" fill="none"></path><path d="M49.227 10.403 C39.972 10.448, 30.281 11.153, 10.37 10.493 M10.919 11.116 C9.915 40.587, 11.093 72.251, 10.164 88.866 M10.186 88.954 C21.882 89.081, 31.037 89.442, 48.981 89.181 M50.321 90.025 C49.536 68.843, 49.133 48.012, 50.372 30.899 M49.987 30.968 C55.388 30.929, 60.63 30.211, 69.082 29.947 M68.975 30.243 C68.654 45.355, 69.026 58.514, 68.923 89.711 M69.512 89.762 C74.69 89.386, 80.298 88.56, 89.959 88.833 M89.798 88.507 C88.379 65.429, 89.372 42.557, 90.01 10.125 M89.725 10.698 C76.893 11.485, 64.229 11.457, 49.391 10.23" stroke="#ffffff" stroke-width="1" fill="none"></path></g></svg>